<svg width="306" height="306" viewBox="0 0 306 306" fill="none" xmlns="http://www.w3.org/2000/svg">
<circle cx="153.297" cy="152.728" r="152.703" fill="#1E40AF"/>
<path d="M76.356 114.112L81.972 97.8072H84.1799L89.796 114.112H88.0636L82.7306 98.7356H83.3874L78.0883 114.112H76.356ZM78.8583 110.16V108.598H87.2823V110.16H78.8583ZM96.9132 114.451C95.6828 114.451 94.6411 114.176 93.7881 113.625C92.9351 113.074 92.286 112.315 91.8406 111.349C91.4028 110.375 91.1763 109.258 91.1612 107.998C91.1763 106.714 91.4103 105.59 91.8632 104.623C92.3162 103.65 92.9691 102.895 93.8221 102.359C94.675 101.815 95.7092 101.544 96.9245 101.544C98.1624 101.544 99.2381 101.846 100.151 102.449C101.072 103.053 101.703 103.88 102.042 104.929L100.412 105.45C100.125 104.718 99.6683 104.152 99.0418 103.752C98.4228 103.344 97.7133 103.14 96.9132 103.14C96.0149 103.14 95.2714 103.348 94.6826 103.763C94.0938 104.171 93.656 104.74 93.3692 105.473C93.0823 106.205 92.9351 107.046 92.9276 107.998C92.9427 109.462 93.2824 110.64 93.9466 111.53C94.6109 112.413 95.5997 112.855 96.9132 112.855C97.7435 112.855 98.4493 112.666 99.0305 112.289C99.6193 111.904 100.065 111.345 100.367 110.613L102.042 111.111C101.589 112.198 100.925 113.029 100.05 113.602C99.1739 114.168 98.1285 114.451 96.9132 114.451ZM111.037 114.112C110.35 114.255 109.671 114.312 108.999 114.282C108.335 114.251 107.739 114.108 107.21 113.851C106.689 113.595 106.293 113.195 106.021 112.651C105.802 112.198 105.682 111.742 105.659 111.281C105.644 110.813 105.636 110.281 105.636 109.685V98.4865H107.289V109.617C107.289 110.13 107.293 110.56 107.301 110.908C107.316 111.247 107.395 111.549 107.539 111.813C107.81 112.319 108.241 112.621 108.829 112.719C109.426 112.817 110.162 112.795 111.037 112.651V114.112ZM103.021 103.31V101.883H111.037V103.31H103.021ZM113.673 99.5622V97.694H115.337V99.5622H113.673ZM113.673 114.112V101.883H115.337V114.112H113.673ZM122.038 114.112L117.6 101.883H119.287L122.899 111.938L126.488 101.883H128.198L123.759 114.112H122.038ZM134.964 114.451C133.771 114.451 132.737 114.187 131.861 113.659C130.993 113.131 130.318 112.387 129.834 111.428C129.351 110.47 129.11 109.345 129.11 108.054C129.11 106.718 129.348 105.563 129.823 104.589C130.299 103.616 130.967 102.865 131.827 102.336C132.695 101.808 133.718 101.544 134.896 101.544C136.103 101.544 137.134 101.823 137.987 102.382C138.84 102.933 139.485 103.725 139.923 104.759C140.361 105.793 140.561 107.028 140.523 108.462H138.825V107.873C138.794 106.288 138.451 105.091 137.794 104.284C137.145 103.476 136.194 103.072 134.941 103.072C133.628 103.072 132.62 103.499 131.918 104.352C131.223 105.205 130.876 106.42 130.876 107.998C130.876 109.537 131.223 110.734 131.918 111.587C132.62 112.432 133.612 112.855 134.896 112.855C135.771 112.855 136.534 112.655 137.183 112.255C137.84 111.847 138.357 111.262 138.734 110.5L140.285 111.1C139.802 112.164 139.089 112.991 138.145 113.58C137.209 114.161 136.149 114.451 134.964 114.451ZM130.287 108.462V107.069H139.629V108.462H130.287ZM153.231 114.451C152.091 114.451 151.064 114.263 150.151 113.885C149.245 113.5 148.494 112.957 147.898 112.255C147.309 111.553 146.924 110.719 146.743 109.753L148.441 109.47C148.713 110.526 149.287 111.357 150.162 111.961C151.038 112.557 152.083 112.855 153.299 112.855C154.099 112.855 154.816 112.73 155.45 112.481C156.084 112.225 156.582 111.862 156.944 111.394C157.307 110.926 157.488 110.372 157.488 109.73C157.488 109.307 157.412 108.949 157.261 108.654C157.111 108.352 156.91 108.103 156.661 107.907C156.412 107.711 156.141 107.548 155.846 107.42C155.552 107.284 155.265 107.175 154.986 107.092L150.853 105.858C150.355 105.714 149.894 105.533 149.472 105.314C149.049 105.088 148.679 104.82 148.362 104.51C148.052 104.193 147.811 103.823 147.637 103.401C147.464 102.978 147.377 102.495 147.377 101.951C147.377 101.03 147.618 100.234 148.101 99.5622C148.585 98.8904 149.245 98.3733 150.083 98.011C150.921 97.6487 151.876 97.4713 152.948 97.4788C154.035 97.4788 155.005 97.6713 155.857 98.0563C156.718 98.4413 157.428 98.9923 157.986 99.7094C158.545 100.419 158.915 101.261 159.096 102.234L157.352 102.551C157.239 101.842 156.978 101.227 156.571 100.706C156.163 100.185 155.642 99.7849 155.008 99.5056C154.382 99.2187 153.691 99.0716 152.936 99.064C152.204 99.064 151.551 99.1886 150.977 99.4377C150.411 99.6792 149.962 100.011 149.63 100.434C149.298 100.857 149.132 101.34 149.132 101.883C149.132 102.434 149.283 102.876 149.585 103.208C149.894 103.54 150.272 103.801 150.717 103.989C151.17 104.178 151.608 104.333 152.03 104.454L155.223 105.393C155.556 105.484 155.944 105.616 156.39 105.79C156.843 105.956 157.28 106.197 157.703 106.514C158.133 106.824 158.488 107.231 158.767 107.737C159.047 108.243 159.186 108.885 159.186 109.662C159.186 110.417 159.035 111.092 158.733 111.689C158.439 112.285 158.02 112.787 157.477 113.195C156.941 113.602 156.31 113.912 155.586 114.123C154.869 114.342 154.084 114.451 153.231 114.451ZM166.698 114.451C165.505 114.451 164.471 114.187 163.596 113.659C162.728 113.131 162.052 112.387 161.569 111.428C161.086 110.47 160.844 109.345 160.844 108.054C160.844 106.718 161.082 105.563 161.558 104.589C162.033 103.616 162.701 102.865 163.562 102.336C164.43 101.808 165.453 101.544 166.63 101.544C167.838 101.544 168.868 101.823 169.721 102.382C170.574 102.933 171.22 103.725 171.657 104.759C172.095 105.793 172.295 107.028 172.257 108.462H170.559V107.873C170.529 106.288 170.185 105.091 169.529 104.284C168.88 103.476 167.928 103.072 166.675 103.072C165.362 103.072 164.354 103.499 163.652 104.352C162.958 105.205 162.611 106.42 162.611 107.998C162.611 109.537 162.958 110.734 163.652 111.587C164.354 112.432 165.347 112.855 166.63 112.855C167.506 112.855 168.268 112.655 168.917 112.255C169.574 111.847 170.091 111.262 170.468 110.5L172.02 111.1C171.537 112.164 170.823 112.991 169.88 113.58C168.944 114.161 167.883 114.451 166.698 114.451ZM162.022 108.462V107.069H171.363V108.462H162.022ZM174.77 114.112V101.883H176.265V104.827L175.97 104.442C176.106 104.08 176.284 103.748 176.503 103.446C176.721 103.136 176.959 102.884 177.216 102.687C177.533 102.408 177.903 102.197 178.326 102.053C178.748 101.902 179.175 101.815 179.605 101.793C180.035 101.763 180.428 101.793 180.783 101.883V103.446C180.337 103.333 179.85 103.306 179.322 103.367C178.794 103.427 178.307 103.638 177.861 104.001C177.454 104.318 177.148 104.699 176.944 105.144C176.74 105.582 176.604 106.05 176.537 106.548C176.469 107.039 176.435 107.526 176.435 108.009V114.112H174.77ZM186.237 114.112L181.798 101.883H183.485L187.097 111.938L190.687 101.883H192.396L187.958 114.112H186.237ZM194.657 99.5622V97.694H196.321V99.5622H194.657ZM194.657 114.112V101.883H196.321V114.112H194.657ZM204.788 114.451C203.558 114.451 202.516 114.176 201.663 113.625C200.81 113.074 200.161 112.315 199.715 111.349C199.278 110.375 199.051 109.258 199.036 107.998C199.051 106.714 199.285 105.59 199.738 104.623C200.191 103.65 200.844 102.895 201.697 102.359C202.55 101.815 203.584 101.544 204.799 101.544C206.037 101.544 207.113 101.846 208.026 102.449C208.947 103.053 209.577 103.88 209.917 104.929L208.287 105.45C208 104.718 207.543 104.152 206.917 103.752C206.298 103.344 205.588 103.14 204.788 103.14C203.89 103.14 203.146 103.348 202.557 103.763C201.969 104.171 201.531 104.74 201.244 105.473C200.957 106.205 200.81 107.046 200.802 107.998C200.818 109.462 201.157 110.64 201.821 111.53C202.486 112.413 203.475 112.855 204.788 112.855C205.618 112.855 206.324 112.666 206.905 112.289C207.494 111.904 207.939 111.345 208.241 110.613L209.917 111.111C209.464 112.198 208.8 113.029 207.924 113.602C207.049 114.168 206.003 114.451 204.788 114.451ZM217.097 114.451C215.904 114.451 214.87 114.187 213.995 113.659C213.127 113.131 212.451 112.387 211.968 111.428C211.485 110.47 211.243 109.345 211.243 108.054C211.243 106.718 211.481 105.563 211.957 104.589C212.432 103.616 213.1 102.865 213.961 102.336C214.829 101.808 215.852 101.544 217.029 101.544C218.237 101.544 219.267 101.823 220.12 102.382C220.973 102.933 221.619 103.725 222.056 104.759C222.494 105.793 222.694 107.028 222.657 108.462H220.958V107.873C220.928 106.288 220.585 105.091 219.928 104.284C219.279 103.476 218.328 103.072 217.075 103.072C215.761 103.072 214.753 103.499 214.051 104.352C213.357 105.205 213.01 106.42 213.01 107.998C213.01 109.537 213.357 110.734 214.051 111.587C214.753 112.432 215.746 112.855 217.029 112.855C217.905 112.855 218.667 112.655 219.316 112.255C219.973 111.847 220.49 111.262 220.868 110.5L222.419 111.1C221.936 112.164 221.222 112.991 220.279 113.58C219.343 114.161 218.282 114.451 217.097 114.451ZM212.421 108.462V107.069H221.762V108.462H212.421ZM229.732 114.44C228.298 114.44 227.117 114.131 226.188 113.512C225.267 112.893 224.701 112.032 224.49 110.93L226.188 110.647C226.37 111.342 226.781 111.896 227.423 112.312C228.072 112.719 228.872 112.923 229.823 112.923C230.751 112.923 231.484 112.73 232.02 112.345C232.555 111.953 232.823 111.421 232.823 110.749C232.823 110.372 232.737 110.066 232.563 109.832C232.397 109.59 232.054 109.368 231.533 109.164C231.012 108.96 230.234 108.718 229.2 108.439C228.091 108.137 227.222 107.835 226.596 107.533C225.969 107.231 225.524 106.884 225.26 106.492C224.996 106.092 224.864 105.605 224.864 105.031C224.864 104.337 225.06 103.729 225.452 103.208C225.845 102.68 226.388 102.272 227.083 101.985C227.777 101.691 228.585 101.544 229.506 101.544C230.427 101.544 231.25 101.695 231.974 101.997C232.706 102.291 233.295 102.706 233.741 103.242C234.186 103.778 234.45 104.401 234.533 105.11L232.835 105.416C232.722 104.699 232.363 104.133 231.759 103.718C231.163 103.295 230.404 103.076 229.483 103.061C228.615 103.038 227.909 103.204 227.366 103.559C226.822 103.906 226.551 104.371 226.551 104.952C226.551 105.276 226.649 105.556 226.845 105.79C227.041 106.016 227.396 106.231 227.909 106.435C228.43 106.639 229.17 106.862 230.129 107.103C231.253 107.39 232.137 107.692 232.778 108.009C233.42 108.326 233.876 108.7 234.148 109.13C234.42 109.56 234.556 110.092 234.556 110.726C234.556 111.881 234.126 112.791 233.265 113.455C232.412 114.112 231.234 114.44 229.732 114.44Z" fill="white"/>
<path d="M85.0827 199.295V194.745C89.7023 191.339 93.552 188.352 96.6318 185.786C99.7582 183.219 102.255 180.886 104.121 178.786C105.988 176.687 107.318 174.703 108.111 172.837C108.904 170.924 109.301 168.94 109.301 166.887C109.301 164.134 108.414 161.918 106.641 160.238C104.914 158.511 102.535 157.648 99.5016 157.648C96.3285 157.648 93.7853 158.698 91.8722 160.798C89.959 162.851 88.8391 165.604 88.5124 169.057L83.6128 166.117C84.0328 163.411 84.896 161.031 86.2026 158.978C87.5558 156.925 89.3523 155.315 91.5922 154.148C93.8787 152.982 96.5851 152.398 99.7116 152.398C102.091 152.398 104.215 152.748 106.081 153.448C107.994 154.148 109.627 155.152 110.981 156.458C112.334 157.718 113.361 159.235 114.06 161.008C114.807 162.781 115.18 164.741 115.18 166.887C115.18 169.78 114.48 172.627 113.081 175.427C111.681 178.18 109.371 181.073 106.151 184.106C102.931 187.139 98.5683 190.499 93.0621 194.185V194.255C93.5754 194.209 94.2753 194.185 95.1619 194.185C96.0952 194.139 97.0051 194.115 97.8917 194.115C98.825 194.069 99.5249 194.045 99.9915 194.045H116.16V199.295H85.0827ZM144.21 199.295V187.186H121.671V183.056L142.74 153.098H149.809V182.356H157.998V187.186H149.809V199.295H144.21ZM127.621 182.356H144.21V165.067C144.21 163.854 144.233 162.618 144.28 161.358C144.373 160.098 144.443 158.861 144.49 157.648H144.35C143.79 158.815 143.066 160.121 142.18 161.568C141.293 163.014 140.476 164.274 139.73 165.347L127.621 182.356ZM190.009 148.199L168.591 204.194H163.341L184.759 148.199H190.009ZM194.735 153.098H228.753V158.348C224.88 162.454 221.707 166.677 219.233 171.017C216.807 175.31 215.034 179.79 213.914 184.456C212.794 189.122 212.234 194.069 212.234 199.295H206.494C206.494 194.115 207.124 189.052 208.384 184.106C209.691 179.113 211.651 174.33 214.264 169.757C216.877 165.184 220.12 160.914 223.993 156.948L224.903 158.348H194.735V153.098Z" fill="white"/>
</svg>
