<svg width="258" height="72" viewBox="0 0 258 72" fill="none" xmlns="http://www.w3.org/2000/svg">
<circle cx="28.512" cy="35.7606" r="28.3066" fill="#0DDE65"/>
<path d="M29.0001 50.3333C21.0934 50.3333 14.6667 43.9066 14.6667 36C14.6667 28.0933 21.0934 21.6666 29.0001 21.6666C36.9067 21.6666 43.3334 28.0933 43.3334 36C43.3334 43.9066 36.9067 50.3333 29.0001 50.3333ZM29.0001 23.6666C22.2001 23.6666 16.6667 29.2 16.6667 36C16.6667 42.8 22.2001 48.3333 29.0001 48.3333C35.8001 48.3333 41.3334 42.8 41.3334 36C41.3334 29.2 35.8001 23.6666 29.0001 23.6666Z" fill="#E6F2F5"/>
<path d="M33.9467 41.24C33.7734 41.24 33.6 41.2 33.44 41.0933L29.3067 38.6266C28.28 38.0133 27.52 36.6666 27.52 35.48V30.0133C27.52 29.4666 27.9734 29.0133 28.52 29.0133C29.0667 29.0133 29.52 29.4666 29.52 30.0133V35.48C29.52 35.96 29.92 36.6666 30.3334 36.9066L34.4667 39.3733C34.9467 39.6533 35.0934 40.2666 34.8134 40.7466C34.6134 41.0666 34.28 41.24 33.9467 41.24Z" fill="#E6F2F5"/>
<path d="M77.642 44.0694C76.1666 44.0694 74.9212 43.7435 73.9055 43.0916C72.8899 42.4328 72.1214 41.5235 71.5998 40.3638C71.0783 39.2041 70.8176 37.866 70.8176 36.3494C70.8176 34.8329 71.0783 33.4947 71.5998 32.335C72.1214 31.1753 72.8899 30.2695 73.9055 29.6176C74.9212 28.9588 76.1666 28.6294 77.642 28.6294C79.3644 28.6294 80.7712 29.072 81.8623 29.9573C82.9534 30.8356 83.7014 32.0159 84.1062 33.4982L82.5622 33.8996C82.2466 32.7262 81.6804 31.7963 80.8638 31.1101C80.0472 30.4239 78.9733 30.0808 77.642 30.0808C76.4823 30.0808 75.5182 30.345 74.7496 30.8734C73.981 31.4018 73.4012 32.1395 73.01 33.0864C72.6257 34.0266 72.4267 35.1142 72.413 36.3494C72.4062 37.5846 72.5949 38.6723 72.9791 39.6124C73.3703 40.5525 73.9536 41.2902 74.729 41.8255C75.5113 42.3539 76.4823 42.6181 77.642 42.6181C78.9733 42.6181 80.0472 42.275 80.8638 41.5887C81.6804 40.8956 82.2466 39.9658 82.5622 38.7992L84.1062 39.2007C83.7014 40.6829 82.9534 41.8666 81.8623 42.7519C80.7712 43.6302 79.3644 44.0694 77.642 44.0694ZM89.558 44.0694C88.7208 44.0694 88.0174 43.9185 87.4479 43.6165C86.8852 43.3146 86.4631 42.9131 86.1818 42.4122C85.9004 41.9113 85.7598 41.3657 85.7598 40.7756C85.7598 40.1717 85.8798 39.657 86.12 39.2316C86.3671 38.7992 86.6999 38.4458 87.1185 38.1713C87.5439 37.8969 88.0346 37.6876 88.5904 37.5435C89.1531 37.4062 89.7742 37.2861 90.4535 37.1832C91.1397 37.0734 91.8088 36.9807 92.4607 36.9053C93.1195 36.8229 93.6959 36.744 94.19 36.6685L93.6547 36.9979C93.6753 35.9 93.4626 35.0868 93.0166 34.5584C92.5705 34.03 91.7951 33.7658 90.6903 33.7658C89.9286 33.7658 89.2835 33.9374 88.7551 34.2805C88.2336 34.6236 87.8665 35.1657 87.6537 35.9068L86.1818 35.4745C86.4357 34.4795 86.9469 33.7075 87.7155 33.1585C88.4841 32.6095 89.4825 32.335 90.7108 32.335C91.7265 32.335 92.5877 32.5272 93.2945 32.9115C94.0081 33.2889 94.5125 33.8379 94.8076 34.5584C94.9448 34.8809 95.034 35.2412 95.0752 35.6392C95.1164 36.0372 95.137 36.4421 95.137 36.8538V43.7606H93.7886V40.9711L94.1797 41.1358C93.8023 42.0897 93.2156 42.8171 92.4195 43.318C91.6235 43.8189 90.6697 44.0694 89.558 44.0694ZM89.733 42.7622C90.4398 42.7622 91.0574 42.6352 91.5858 42.3813C92.1142 42.1274 92.5396 41.7809 92.8622 41.3417C93.1847 40.8956 93.394 40.3947 93.49 39.8389C93.5724 39.482 93.617 39.0909 93.6239 38.6654C93.6307 38.2331 93.6342 37.9106 93.6342 37.6979L94.2106 37.9964C93.6959 38.065 93.1366 38.1336 92.5328 38.2022C91.9358 38.2708 91.3456 38.3498 90.7623 38.439C90.1859 38.5282 89.6644 38.6345 89.1977 38.7581C88.8821 38.8473 88.5767 38.9742 88.2816 39.1389C87.9865 39.2967 87.7429 39.5095 87.5508 39.7771C87.3655 40.0447 87.2729 40.3775 87.2729 40.7756C87.2729 41.0981 87.3518 41.4103 87.5096 41.7122C87.6743 42.0142 87.9351 42.2647 88.2919 42.4637C88.6556 42.6627 89.136 42.7622 89.733 42.7622ZM102.809 44.0694C101.786 44.0694 100.922 43.8121 100.215 43.2974C99.5082 42.7759 98.9729 42.0725 98.6092 41.1873C98.2455 40.2952 98.0637 39.2967 98.0637 38.1919C98.0637 37.0665 98.2455 36.0646 98.6092 35.1863C98.9798 34.3011 99.5219 33.6045 100.236 33.0967C100.949 32.5889 101.828 32.335 102.871 32.335C103.886 32.335 104.758 32.5924 105.485 33.107C106.213 33.6217 106.768 34.3216 107.153 35.2069C107.544 36.0921 107.739 37.0871 107.739 38.1919C107.739 39.3036 107.544 40.3021 107.153 41.1873C106.762 42.0725 106.199 42.7759 105.465 43.2974C104.73 43.8121 103.845 44.0694 102.809 44.0694ZM97.8063 48.7014V32.6438H99.165V41.0123H99.3297V48.7014H97.8063ZM102.654 42.6592C103.43 42.6592 104.075 42.4637 104.59 42.0725C105.104 41.6814 105.489 41.1495 105.742 40.477C106.003 39.7977 106.134 39.036 106.134 38.1919C106.134 37.3547 106.007 36.5999 105.753 35.9274C105.499 35.2549 105.111 34.7231 104.59 34.3319C104.075 33.9408 103.42 33.7452 102.624 33.7452C101.848 33.7452 101.203 33.9339 100.688 34.3113C100.181 34.6888 99.7998 35.2137 99.5459 35.8862C99.292 36.5519 99.165 37.3204 99.165 38.1919C99.165 39.0497 99.292 39.8183 99.5459 40.4976C99.7998 41.1701 100.184 41.6985 100.699 42.0828C101.213 42.4671 101.865 42.6592 102.654 42.6592ZM116.052 43.7606C115.428 43.891 114.81 43.9425 114.199 43.915C113.596 43.8876 113.053 43.7572 112.573 43.5239C112.1 43.2906 111.739 42.9269 111.492 42.4328C111.293 42.021 111.183 41.6059 111.163 41.1873C111.149 40.7618 111.142 40.278 111.142 39.7359V29.5558H112.645V39.6742C112.645 40.1408 112.649 40.5319 112.655 40.8476C112.669 41.1564 112.741 41.4309 112.872 41.6711C113.119 42.1308 113.51 42.4053 114.045 42.4945C114.587 42.5837 115.256 42.5632 116.052 42.4328V43.7606ZM108.765 33.9408V32.6438H116.052V33.9408H108.765ZM122.494 44.0385C121.828 44.0385 121.245 43.9356 120.744 43.7297C120.25 43.5239 119.828 43.246 119.478 42.896C119.135 42.546 118.857 42.148 118.644 41.702C118.431 41.249 118.277 40.7721 118.181 40.2712C118.085 39.7634 118.037 39.259 118.037 38.7581V32.6438H119.56V38.3155C119.56 38.9262 119.618 39.4923 119.735 40.0138C119.852 40.5354 120.037 40.9917 120.291 41.3829C120.552 41.7671 120.884 42.0657 121.289 42.2784C121.701 42.4911 122.199 42.5975 122.782 42.5975C123.317 42.5975 123.787 42.5048 124.192 42.3196C124.604 42.1343 124.947 41.8701 125.221 41.527C125.503 41.177 125.715 40.755 125.859 40.2609C126.004 39.7599 126.076 39.1972 126.076 38.5728L127.146 38.8095C127.146 39.9487 126.947 40.9059 126.549 41.6814C126.151 42.4568 125.602 43.0435 124.902 43.4415C124.202 43.8395 123.399 44.0385 122.494 44.0385ZM126.23 43.7606V41.0226H126.076V32.6438H127.589V43.7606H126.23ZM130.466 43.7606V32.6438H131.824V35.3201L131.557 34.9701C131.68 34.6407 131.842 34.3388 132.041 34.0643C132.24 33.783 132.456 33.5531 132.689 33.3747C132.977 33.1208 133.314 32.9286 133.698 32.7982C134.082 32.661 134.47 32.5821 134.861 32.5615C135.252 32.534 135.609 32.5615 135.932 32.6438V34.0643C135.527 33.9614 135.084 33.9374 134.604 33.9923C134.123 34.0472 133.681 34.2393 133.276 34.5687C132.905 34.8569 132.627 35.2034 132.442 35.6083C132.257 36.0063 132.133 36.4318 132.072 36.8847C132.01 37.3307 131.979 37.7733 131.979 38.2125V43.7606H130.466ZM142.387 44.0694C141.303 44.0694 140.363 43.8292 139.567 43.3489C138.778 42.8685 138.164 42.1926 137.724 41.3211C137.285 40.4496 137.066 39.4271 137.066 38.2537C137.066 37.0391 137.282 35.9892 137.714 35.1039C138.146 34.2187 138.754 33.5359 139.536 33.0556C140.325 32.5752 141.255 32.335 142.325 32.335C143.423 32.335 144.36 32.5889 145.136 33.0967C145.911 33.5977 146.498 34.3182 146.896 35.2583C147.294 36.1985 147.476 37.3204 147.441 38.6243H145.897V38.089C145.87 36.6479 145.558 35.5603 144.961 34.826C144.37 34.0918 143.506 33.7246 142.367 33.7246C141.173 33.7246 140.256 34.1123 139.618 34.8878C138.987 35.6632 138.671 36.768 138.671 38.2022C138.671 39.6021 138.987 40.6898 139.618 41.4652C140.256 42.2338 141.159 42.6181 142.325 42.6181C143.121 42.6181 143.815 42.4362 144.405 42.0725C145.002 41.702 145.472 41.1701 145.815 40.477L147.225 41.0226C146.786 41.9902 146.137 42.7416 145.28 43.2768C144.429 43.8052 143.465 44.0694 142.387 44.0694ZM138.136 38.6243V37.3582H146.628V38.6243H138.136ZM153.847 43.7606V28.9382H159.57C160.4 28.9382 161.124 29.1098 161.742 29.4529C162.359 29.796 162.84 30.2592 163.183 30.8425C163.526 31.4189 163.698 32.0571 163.698 32.7571C163.698 33.5531 163.485 34.2633 163.059 34.8878C162.634 35.5054 162.064 35.9343 161.351 36.1744L161.33 35.6701C162.291 35.9446 163.046 36.4249 163.595 37.1111C164.144 37.7974 164.418 38.6277 164.418 39.6021C164.418 40.4599 164.236 41.201 163.873 41.8255C163.509 42.4431 162.998 42.92 162.339 43.2562C161.68 43.5925 160.915 43.7606 160.043 43.7606H153.847ZM155.37 42.3093H159.673C160.277 42.3093 160.819 42.2029 161.299 41.9902C161.78 41.7706 162.157 41.4618 162.432 41.0638C162.713 40.6658 162.854 40.1854 162.854 39.6227C162.854 39.0737 162.727 38.5796 162.473 38.1405C162.219 37.7013 161.872 37.3513 161.433 37.0905C161.001 36.8229 160.507 36.6891 159.951 36.6891H155.37V42.3093ZM155.37 35.2583H159.56C160.033 35.2583 160.465 35.152 160.857 34.9392C161.248 34.7196 161.557 34.4211 161.783 34.0437C162.016 33.6663 162.133 33.2305 162.133 32.7365C162.133 32.0365 161.889 31.467 161.402 31.0278C160.922 30.5886 160.308 30.369 159.56 30.369H155.37V35.2583ZM170.723 44.0385C170.058 44.0385 169.475 43.9356 168.974 43.7297C168.479 43.5239 168.057 43.246 167.707 42.896C167.364 42.546 167.086 42.148 166.874 41.702C166.661 41.249 166.507 40.7721 166.411 40.2712C166.314 39.7634 166.266 39.259 166.266 38.7581V32.6438H167.79V38.3155C167.79 38.9262 167.848 39.4923 167.965 40.0138C168.081 40.5354 168.267 40.9917 168.521 41.3829C168.781 41.7671 169.114 42.0657 169.519 42.2784C169.931 42.4911 170.428 42.5975 171.012 42.5975C171.547 42.5975 172.017 42.5048 172.422 42.3196C172.834 42.1343 173.177 41.8701 173.451 41.527C173.733 41.177 173.945 40.755 174.089 40.2609C174.233 39.7599 174.306 39.1972 174.306 38.5728L175.376 38.8095C175.376 39.9487 175.177 40.9059 174.779 41.6814C174.381 42.4568 173.832 43.0435 173.132 43.4415C172.432 43.8395 171.629 44.0385 170.723 44.0385ZM174.46 43.7606V41.0226H174.306V32.6438H175.819V43.7606H174.46ZM183.009 44.0694C181.972 44.0694 181.087 43.8121 180.353 43.2974C179.619 42.7759 179.056 42.0725 178.665 41.1873C178.274 40.3021 178.078 39.3036 178.078 38.1919C178.078 37.0871 178.27 36.0921 178.654 35.2069C179.046 34.3216 179.605 33.6217 180.332 33.107C181.06 32.5924 181.931 32.335 182.947 32.335C183.99 32.335 184.868 32.5889 185.582 33.0967C186.296 33.6045 186.834 34.3011 187.198 35.1863C187.568 36.0646 187.754 37.0665 187.754 38.1919C187.754 39.2967 187.572 40.2952 187.208 41.1873C186.845 42.0725 186.309 42.7759 185.602 43.2974C184.896 43.8121 184.031 44.0694 183.009 44.0694ZM183.163 42.6592C183.952 42.6592 184.604 42.4671 185.119 42.0828C185.633 41.6985 186.018 41.1701 186.272 40.4976C186.525 39.8183 186.652 39.0497 186.652 38.1919C186.652 37.3204 186.525 36.5519 186.272 35.8862C186.018 35.2137 185.633 34.6888 185.119 34.3113C184.611 33.9339 183.969 33.7452 183.194 33.7452C182.398 33.7452 181.739 33.9408 181.217 34.3319C180.696 34.7231 180.308 35.2549 180.054 35.9274C179.807 36.5999 179.684 37.3547 179.684 38.1919C179.684 39.036 179.811 39.7977 180.065 40.477C180.325 41.1495 180.713 41.6814 181.228 42.0725C181.742 42.4637 182.387 42.6592 183.163 42.6592ZM186.652 43.7606V35.3921H186.488V28.9382H188.011V43.7606H186.652ZM195.315 49.0102C194.745 49.0102 194.182 48.9244 193.627 48.7529C193.078 48.5882 192.57 48.324 192.103 47.9603C191.637 47.6035 191.245 47.1368 190.93 46.5604L192.299 45.7987C192.608 46.4163 193.04 46.8589 193.596 47.1265C194.158 47.401 194.731 47.5383 195.315 47.5383C196.118 47.5383 196.766 47.3873 197.26 47.0854C197.761 46.7903 198.125 46.3511 198.351 45.7678C198.578 45.1845 198.687 44.4571 198.681 43.5856V40.6212H198.856V32.6438H200.204V43.6062C200.204 43.9219 200.194 44.2238 200.173 44.512C200.159 44.8071 200.129 45.0953 200.08 45.3767C199.95 46.207 199.679 46.8898 199.267 47.425C198.862 47.9603 198.327 48.3583 197.662 48.6191C197.003 48.8798 196.22 49.0102 195.315 49.0102ZM195.212 44.0694C194.176 44.0694 193.29 43.8121 192.556 43.2974C191.822 42.7759 191.259 42.0725 190.868 41.1873C190.477 40.3021 190.281 39.3036 190.281 38.1919C190.281 37.0871 190.473 36.0921 190.858 35.2069C191.249 34.3216 191.808 33.6217 192.535 33.107C193.263 32.5924 194.134 32.335 195.15 32.335C196.193 32.335 197.071 32.5889 197.785 33.0967C198.499 33.6045 199.037 34.3011 199.401 35.1863C199.772 36.0646 199.957 37.0665 199.957 38.1919C199.957 39.2967 199.775 40.2952 199.411 41.1873C199.048 42.0725 198.512 42.7759 197.806 43.2974C197.099 43.8121 196.234 44.0694 195.212 44.0694ZM195.366 42.6592C196.155 42.6592 196.807 42.4671 197.322 42.0828C197.837 41.6985 198.221 41.1701 198.475 40.4976C198.729 39.8183 198.856 39.0497 198.856 38.1919C198.856 37.3204 198.729 36.5519 198.475 35.8862C198.221 35.2137 197.837 34.6888 197.322 34.3113C196.814 33.9339 196.172 33.7452 195.397 33.7452C194.601 33.7452 193.942 33.9408 193.421 34.3319C192.899 34.7231 192.511 35.2549 192.258 35.9274C192.011 36.5999 191.887 37.3547 191.887 38.1919C191.887 39.036 192.014 39.7977 192.268 40.477C192.529 41.1495 192.916 41.6814 193.431 42.0725C193.946 42.4637 194.591 42.6592 195.366 42.6592ZM207.786 44.0694C206.702 44.0694 205.762 43.8292 204.966 43.3489C204.176 42.8685 203.562 42.1926 203.123 41.3211C202.684 40.4496 202.464 39.4271 202.464 38.2537C202.464 37.0391 202.681 35.9892 203.113 35.1039C203.545 34.2187 204.152 33.5359 204.935 33.0556C205.724 32.5752 206.654 32.335 207.724 32.335C208.822 32.335 209.759 32.5889 210.534 33.0967C211.31 33.5977 211.896 34.3182 212.294 35.2583C212.692 36.1985 212.874 37.3204 212.84 38.6243H211.296V38.089C211.269 36.6479 210.956 35.5603 210.359 34.826C209.769 34.0918 208.905 33.7246 207.765 33.7246C206.571 33.7246 205.655 34.1123 205.017 34.8878C204.386 35.6632 204.07 36.768 204.07 38.2022C204.07 39.6021 204.386 40.6898 205.017 41.4652C205.655 42.2338 206.558 42.6181 207.724 42.6181C208.52 42.6181 209.213 42.4362 209.803 42.0725C210.401 41.702 210.871 41.1701 211.214 40.477L212.624 41.0226C212.185 41.9902 211.536 42.7416 210.678 43.2768C209.828 43.8052 208.863 44.0694 207.786 44.0694ZM203.535 38.6243V37.3582H212.027V38.6243H203.535ZM221.177 43.7606C220.552 43.891 219.935 43.9425 219.324 43.915C218.72 43.8876 218.178 43.7572 217.698 43.5239C217.224 43.2906 216.864 42.9269 216.617 42.4328C216.418 42.021 216.308 41.6059 216.287 41.1873C216.274 40.7618 216.267 40.278 216.267 39.7359V29.5558H217.77V39.6742C217.77 40.1408 217.773 40.5319 217.78 40.8476C217.794 41.1564 217.866 41.4309 217.996 41.6711C218.243 42.1308 218.634 42.4053 219.17 42.4945C219.712 42.5837 220.381 42.5632 221.177 42.4328V43.7606ZM213.889 33.9408V32.6438H221.177V33.9408H213.889ZM223.573 30.5337V28.8353H225.086V30.5337H223.573ZM223.573 43.7606V32.6438H225.086V43.7606H223.573ZM236.201 43.7606V38.089C236.201 37.4714 236.142 36.9053 236.026 36.3906C235.909 35.8691 235.72 35.4162 235.46 35.0319C235.206 34.6407 234.873 34.3388 234.461 34.1261C234.056 33.9133 233.562 33.807 232.979 33.807C232.444 33.807 231.97 33.8996 231.558 34.0849C231.154 34.2702 230.81 34.5378 230.529 34.8878C230.255 35.2309 230.045 35.6495 229.901 36.1436C229.757 36.6376 229.685 37.2003 229.685 37.8317L228.615 37.5949C228.615 36.4558 228.814 35.4985 229.212 34.7231C229.61 33.9476 230.159 33.3609 230.858 32.9629C231.558 32.5649 232.361 32.3659 233.267 32.3659C233.933 32.3659 234.513 32.4688 235.007 32.6747C235.508 32.8806 235.93 33.1585 236.273 33.5085C236.623 33.8584 236.904 34.2599 237.117 34.7128C237.33 35.1588 237.484 35.6358 237.58 36.1436C237.676 36.6445 237.724 37.1454 237.724 37.6464V43.7606H236.201ZM228.162 43.7606V32.6438H229.531V35.3819H229.685V43.7606H228.162ZM244.811 49.0102C244.242 49.0102 243.679 48.9244 243.123 48.7529C242.574 48.5882 242.066 48.324 241.6 47.9603C241.133 47.6035 240.742 47.1368 240.426 46.5604L241.795 45.7987C242.104 46.4163 242.536 46.8589 243.092 47.1265C243.655 47.401 244.228 47.5383 244.811 47.5383C245.614 47.5383 246.262 47.3873 246.757 47.0854C247.257 46.7903 247.621 46.3511 247.848 45.7678C248.074 45.1845 248.184 44.4571 248.177 43.5856V40.6212H248.352V32.6438H249.7V43.6062C249.7 43.9219 249.69 44.2238 249.67 44.512C249.656 44.8071 249.625 45.0953 249.577 45.3767C249.447 46.207 249.175 46.8898 248.764 47.425C248.359 47.9603 247.824 48.3583 247.158 48.6191C246.499 48.8798 245.717 49.0102 244.811 49.0102ZM244.708 44.0694C243.672 44.0694 242.787 43.8121 242.052 43.2974C241.318 42.7759 240.756 42.0725 240.364 41.1873C239.973 40.3021 239.778 39.3036 239.778 38.1919C239.778 37.0871 239.97 36.0921 240.354 35.2069C240.745 34.3216 241.305 33.6217 242.032 33.107C242.759 32.5924 243.631 32.335 244.646 32.335C245.689 32.335 246.568 32.5889 247.281 33.0967C247.995 33.6045 248.534 34.3011 248.898 35.1863C249.268 36.0646 249.453 37.0665 249.453 38.1919C249.453 39.2967 249.272 40.2952 248.908 41.1873C248.544 42.0725 248.009 42.7759 247.302 43.2974C246.595 43.8121 245.731 44.0694 244.708 44.0694ZM244.863 42.6592C245.652 42.6592 246.304 42.4671 246.818 42.0828C247.333 41.6985 247.717 41.1701 247.971 40.4976C248.225 39.8183 248.352 39.0497 248.352 38.1919C248.352 37.3204 248.225 36.5519 247.971 35.8862C247.717 35.2137 247.333 34.6888 246.818 34.3113C246.31 33.9339 245.669 33.7452 244.893 33.7452C244.097 33.7452 243.439 33.9408 242.917 34.3319C242.396 34.7231 242.008 35.2549 241.754 35.9274C241.507 36.5999 241.383 37.3547 241.383 38.1919C241.383 39.036 241.51 39.7977 241.764 40.477C242.025 41.1495 242.413 41.6814 242.927 42.0725C243.442 42.4637 244.087 42.6592 244.863 42.6592Z" fill="#002A80"/>
</svg>
