<svg width="374" height="570" viewBox="0 0 374 570" fill="none" xmlns="http://www.w3.org/2000/svg">
<g clip-path="url(#clip0_154_3546)">
<rect x="0.717773" y="0.232422" width="373.274" height="569.102" rx="7.06959" fill="#0DDE65"/>
<path d="M303.706 106.968C303.706 111.692 299.887 117.342 297.619 115.074C295.481 112.936 299.066 110.801 299.066 106.077C299.066 101.353 295.467 100.105 297.619 97.9667C299.771 95.8283 303.706 102.244 303.706 106.968Z" fill="white"/>
<path d="M311.52 106.09C311.52 112.809 308.817 120.037 305.223 118.256C302.303 116.81 306.551 112.809 306.551 106.09C306.551 99.3707 302.004 95.4849 305.223 93.9237C308.441 92.3624 311.52 99.3707 311.52 106.09Z" fill="white"/>
<path d="M320.075 106.499C320.075 115.759 315.971 125.029 312.591 122.574C309.845 120.581 315.106 115.759 315.106 106.499C315.106 97.2393 309.564 92.6494 312.591 90.4978C315.618 88.3463 320.075 97.2393 320.075 106.499Z" fill="white"/>
<path d="M329.697 106.432C329.697 118.505 323.501 130.044 320.074 126.844C317.29 124.245 324.728 118.505 324.728 106.432C324.728 94.358 318.074 89.0189 321.143 86.2136C324.212 83.4082 329.697 94.358 329.697 106.432Z" fill="white"/>
<rect x="261.896" y="72.4274" width="64.6877" height="47.5802" rx="7.75183" transform="rotate(90 261.896 72.4274)" fill="#D3C5C2" stroke="#11252A" stroke-width="1.60383"/>
<path d="M246.127 71.6255V91.9406" stroke="#11252A" stroke-width="1.06922"/>
<path d="M214.583 117.607L217.772 116.538L220.962 115.469H224.152H227.342L230.621 116.538L235.848 115.469H239.037H242.227L246.445 117.251" stroke="#11252A" stroke-width="1.06922"/>
<path d="M213.513 90.8779L216.724 91.9471L219.935 93.0164H223.146H226.357L230.62 91.9471L234.92 93.0164H238.131H241.342L246.658 91.9471" stroke="#11252A" stroke-width="1.06922"/>
<path d="M261.628 90.8779L257.21 93.0164H253.895H250.58L246.142 91.9471" stroke="#11252A" stroke-width="1.06922"/>
<path d="M246.127 116.763V137.922" stroke="#11252A" stroke-width="1.06922"/>
<path d="M231.159 71.6255V92.4869" stroke="#11252A" stroke-width="1.06922"/>
<path d="M220.996 93.0164L219.927 98.3624V104.778V110.124L220.996 115.47" stroke="#11252A" stroke-width="1.06922"/>
<path d="M255.213 93.0164L256.282 98.3624V104.778V110.124L255.213 115.47" stroke="#11252A" stroke-width="1.06922"/>
<path d="M261.627 119.745L258.419 117.607L255.211 115.469H253.073" stroke="#11252A" stroke-width="1.06922"/>
<line x1="231.155" y1="116.538" x2="231.155" y2="137.923" stroke="#11252A" stroke-width="1.06922"/>
<path d="M86.8154 352.344C89.5829 290.831 95.5136 256.715 112.967 197.634M109.819 193.497C109.492 195.433 110.704 197.252 112.527 197.56C114.35 197.868 116.093 196.548 116.42 194.613C116.747 192.677 115.535 190.858 113.712 190.549C111.889 190.241 110.146 191.561 109.819 193.497Z" stroke="white" stroke-width="1.41392"/>
<path d="M63.6462 350.415C54.141 278.368 34.3457 234.54 92.1368 196.118M98.689 193.713C98.3325 195.644 95.71 196.778 92.8316 196.247C89.9532 195.715 87.9088 193.719 88.2653 191.788C88.6218 189.858 91.2442 188.723 94.1226 189.255C97.0011 189.786 99.0455 191.782 98.689 193.713Z" stroke="white" stroke-width="1.41392"/>
<path d="M82.5577 342.741C73.6286 294.68 74.4174 264.827 41.7508 241.963M38.4032 240.661C38.9139 241.922 40.285 242.557 41.4658 242.078C42.6466 241.6 43.1899 240.19 42.6793 238.929C42.1686 237.668 40.7975 237.034 39.6167 237.512C38.4359 237.99 37.8926 239.4 38.4032 240.661Z" stroke="white" stroke-width="1.41392"/>
<path d="M86.2663 345.756C97.219 298.659 103.608 271.184 126.846 239.697M133.375 239.441C132.867 240.768 130.239 240.996 127.506 239.95C124.772 238.904 122.967 236.98 123.475 235.653C123.983 234.326 126.611 234.098 129.344 235.144C132.078 236.19 133.883 238.114 133.375 239.441Z" stroke="white" stroke-width="1.41392"/>
<path d="M133.98 363.605C129.018 321.303 126.789 298.068 133.98 259.452M139.989 257.093C139.989 258.396 137.615 259.452 134.687 259.452C131.759 259.452 129.385 258.396 129.385 257.093C129.385 255.789 131.759 254.733 134.687 254.733C137.615 254.733 139.989 255.789 139.989 257.093Z" stroke="white" stroke-width="1.41392"/>
<rect width="373.274" height="245.315" transform="translate(0.717773 324.012)" fill="#002A80"/>
<path d="M29.2942 366.709C28.1139 366.709 27.1175 366.448 26.3051 365.927C25.4926 365.4 24.8777 364.672 24.4605 363.744C24.0433 362.817 23.8347 361.746 23.8347 360.533C23.8347 359.32 24.0433 358.249 24.4605 357.321C24.8777 356.394 25.4926 355.669 26.3051 355.147C27.1175 354.62 28.1139 354.357 29.2942 354.357C30.6722 354.357 31.7976 354.711 32.6704 355.419C33.5433 356.122 34.1417 357.066 34.4656 358.252L33.2304 358.573C32.9779 357.634 32.525 356.89 31.8717 356.341C31.2184 355.792 30.3593 355.518 29.2942 355.518C28.3665 355.518 27.5952 355.729 26.9803 356.152C26.3654 356.575 25.9016 357.165 25.5886 357.922C25.2812 358.675 25.122 359.545 25.111 360.533C25.1055 361.521 25.2565 362.391 25.5639 363.143C25.8769 363.895 26.3435 364.485 26.9638 364.914C27.5897 365.336 28.3665 365.548 29.2942 365.548C30.3593 365.548 31.2184 365.273 31.8717 364.724C32.525 364.17 32.9779 363.426 33.2304 362.493L34.4656 362.814C34.1417 364 33.5433 364.947 32.6704 365.655C31.7976 366.357 30.6722 366.709 29.2942 366.709ZM38.827 366.709C38.1573 366.709 37.5946 366.588 37.1389 366.347C36.6887 366.105 36.3511 365.784 36.126 365.383C35.901 364.982 35.7884 364.546 35.7884 364.074C35.7884 363.591 35.8845 363.179 36.0766 362.839C36.2743 362.493 36.5405 362.21 36.8754 361.99C37.2158 361.771 37.6083 361.603 38.053 361.488C38.5031 361.378 38.9999 361.282 39.5434 361.2C40.0924 361.112 40.6277 361.038 41.1492 360.978C41.6762 360.912 42.1373 360.848 42.5326 360.788L42.1044 361.052C42.1209 360.173 41.9507 359.523 41.5939 359.1C41.237 358.677 40.6167 358.466 39.7328 358.466C39.1235 358.466 38.6074 358.603 38.1847 358.878C37.7675 359.152 37.4738 359.586 37.3036 360.179L36.126 359.833C36.3292 359.037 36.7382 358.419 37.353 357.98C37.9679 357.541 38.7666 357.321 39.7493 357.321C40.5618 357.321 41.2507 357.475 41.8162 357.782C42.3871 358.084 42.7906 358.524 43.0267 359.1C43.1365 359.358 43.2079 359.646 43.2408 359.965C43.2737 360.283 43.2902 360.607 43.2902 360.936V366.462H42.2115V364.23L42.5244 364.362C42.2224 365.125 41.7531 365.707 41.1162 366.108C40.4794 366.508 39.7164 366.709 38.827 366.709ZM38.967 365.663C39.5324 365.663 40.0265 365.561 40.4492 365.358C40.872 365.155 41.2123 364.878 41.4703 364.527C41.7284 364.17 41.8958 363.769 41.9727 363.324C42.0385 363.039 42.0742 362.726 42.0797 362.386C42.0852 362.04 42.0879 361.782 42.0879 361.612L42.5491 361.85C42.1373 361.905 41.6899 361.96 41.2068 362.015C40.7292 362.07 40.2571 362.133 39.7905 362.204C39.3293 362.276 38.9121 362.361 38.5388 362.46C38.2863 362.531 38.042 362.633 37.8059 362.764C37.5699 362.891 37.375 363.061 37.2213 363.275C37.073 363.489 36.9989 363.755 36.9989 364.074C36.9989 364.332 37.0621 364.582 37.1883 364.823C37.3201 365.065 37.5287 365.265 37.8141 365.424C38.1051 365.583 38.4894 365.663 38.967 365.663ZM49.4277 366.709C48.6097 366.709 47.918 366.503 47.3526 366.091C46.7871 365.674 46.3589 365.111 46.068 364.403C45.777 363.689 45.6315 362.891 45.6315 362.007C45.6315 361.107 45.777 360.305 46.068 359.602C46.3644 358.894 46.7981 358.337 47.3691 357.931C47.94 357.524 48.6427 357.321 49.4771 357.321C50.2896 357.321 50.9868 357.527 51.5687 357.939C52.1506 358.351 52.5953 358.911 52.9027 359.619C53.2157 360.327 53.3721 361.123 53.3721 362.007C53.3721 362.896 53.2157 363.695 52.9027 364.403C52.5898 365.111 52.1397 365.674 51.5523 366.091C50.9649 366.503 50.2567 366.709 49.4277 366.709ZM45.4257 370.414V357.568H46.5127V364.263H46.6444V370.414H45.4257ZM49.3042 365.581C49.9245 365.581 50.4406 365.424 50.8523 365.111C51.2641 364.798 51.5715 364.373 51.7746 363.835C51.9832 363.291 52.0875 362.682 52.0875 362.007C52.0875 361.337 51.986 360.733 51.7828 360.195C51.5797 359.657 51.2695 359.232 50.8523 358.919C50.4406 358.606 49.9163 358.449 49.2795 358.449C48.6592 358.449 48.1431 358.6 47.7314 358.902C47.3251 359.204 47.0205 359.624 46.8173 360.162C46.6142 360.695 46.5127 361.31 46.5127 362.007C46.5127 362.693 46.6142 363.308 46.8173 363.851C47.0205 364.389 47.3279 364.812 47.7396 365.12C48.1513 365.427 48.6729 365.581 49.3042 365.581ZM60.0224 366.462C59.5228 366.566 59.0287 366.607 58.5401 366.585C58.057 366.563 57.6234 366.459 57.2391 366.272C56.8603 366.086 56.5721 365.795 56.3744 365.4C56.2152 365.07 56.1274 364.738 56.1109 364.403C56.0999 364.063 56.0945 363.676 56.0945 363.242V355.098H57.2967V363.193C57.2967 363.566 57.2995 363.879 57.3049 364.131C57.3159 364.378 57.3736 364.598 57.4779 364.79C57.6755 365.158 57.9884 365.378 58.4166 365.449C58.8503 365.52 59.3856 365.504 60.0224 365.4V366.462ZM54.1922 358.606V357.568H60.0224V358.606H54.1922ZM65.1755 366.684C64.643 366.684 64.1763 366.602 63.7756 366.437C63.3803 366.272 63.0427 366.05 62.7627 365.77C62.4882 365.49 62.2659 365.172 62.0957 364.815C61.9255 364.453 61.802 364.071 61.7252 363.67C61.6483 363.264 61.6099 362.861 61.6099 362.46V357.568H62.8286V362.106C62.8286 362.594 62.8753 363.047 62.9686 363.464C63.0619 363.882 63.2101 364.247 63.4133 364.56C63.6219 364.867 63.8881 365.106 64.212 365.276C64.5414 365.446 64.9394 365.531 65.406 365.531C65.8343 365.531 66.2103 365.457 66.5342 365.309C66.8636 365.161 67.1381 364.949 67.3577 364.675C67.5827 364.395 67.7529 364.057 67.8682 363.662C67.9835 363.261 68.0411 362.811 68.0411 362.312L68.8975 362.501C68.8975 363.412 68.7383 364.178 68.4199 364.798C68.1015 365.419 67.6623 365.888 67.1024 366.207C66.5424 366.525 65.9001 366.684 65.1755 366.684ZM68.1647 366.462V364.271H68.0411V357.568H69.2516V366.462H68.1647ZM71.5532 366.462V357.568H72.6402V359.709L72.4261 359.429C72.5249 359.166 72.6539 358.924 72.8131 358.705C72.9723 358.48 73.1453 358.296 73.3319 358.153C73.5625 357.95 73.8315 357.796 74.1389 357.692C74.4463 357.582 74.7565 357.519 75.0694 357.502C75.3823 357.481 75.6678 357.502 75.9258 357.568V358.705C75.6019 358.622 75.2478 358.603 74.8636 358.647C74.4793 358.691 74.1252 358.845 73.8013 359.108C73.5048 359.339 73.2825 359.616 73.1343 359.94C72.9861 360.258 72.8872 360.599 72.8378 360.961C72.7884 361.318 72.7637 361.672 72.7637 362.023V366.462H71.5532ZM81.0904 366.709C80.223 366.709 79.4709 366.517 78.8341 366.132C78.2028 365.748 77.7114 365.207 77.3601 364.51C77.0087 363.813 76.8331 362.995 76.8331 362.056C76.8331 361.085 77.006 360.245 77.3518 359.536C77.6977 358.828 78.1835 358.282 78.8094 357.898C79.4407 357.513 80.1846 357.321 81.041 357.321C81.9193 357.321 82.6687 357.524 83.289 357.931C83.9094 358.331 84.3788 358.908 84.6972 359.66C85.0156 360.412 85.161 361.31 85.1336 362.353H83.8984V361.924C83.8764 360.772 83.6267 359.902 83.149 359.314C82.6769 358.727 81.9852 358.433 81.0739 358.433C80.1187 358.433 79.3858 358.743 78.8753 359.364C78.3702 359.984 78.1177 360.868 78.1177 362.015C78.1177 363.135 78.3702 364.005 78.8753 364.625C79.3858 365.24 80.1077 365.548 81.041 365.548C81.6778 365.548 82.2323 365.402 82.7044 365.111C83.182 364.815 83.558 364.389 83.8325 363.835L84.9607 364.271C84.6093 365.045 84.0905 365.647 83.4043 366.075C82.7236 366.497 81.9523 366.709 81.0904 366.709ZM77.6895 362.353V361.34H84.4831V362.353H77.6895ZM90.2581 366.462V354.604H94.8366C94.9519 354.604 95.0809 354.609 95.2236 354.62C95.3718 354.626 95.5201 354.642 95.6683 354.67C96.2886 354.763 96.8129 354.98 97.2411 355.32C97.6748 355.655 98.0014 356.078 98.221 356.588C98.4461 357.099 98.5587 357.664 98.5587 358.285C98.5587 359.18 98.3226 359.956 97.8505 360.615C97.3784 361.274 96.7031 361.688 95.8248 361.859L95.4048 361.957H91.4686V366.462H90.2581ZM97.4387 366.462L95.1001 361.636L96.2612 361.192L98.8304 366.462H97.4387ZM91.4686 360.805H94.8037C94.9025 360.805 95.0178 360.799 95.1495 360.788C95.2813 360.777 95.4103 360.758 95.5365 360.73C95.9428 360.643 96.2749 360.475 96.5329 360.228C96.7964 359.981 96.9913 359.687 97.1176 359.347C97.2493 359.007 97.3152 358.653 97.3152 358.285C97.3152 357.917 97.2493 357.563 97.1176 357.223C96.9913 356.877 96.7964 356.58 96.5329 356.333C96.2749 356.086 95.9428 355.919 95.5365 355.831C95.4103 355.803 95.2813 355.787 95.1495 355.781C95.0178 355.77 94.9025 355.765 94.8037 355.765H91.4686V360.805ZM104.411 366.709C103.544 366.709 102.792 366.517 102.155 366.132C101.524 365.748 101.032 365.207 100.681 364.51C100.33 363.813 100.154 362.995 100.154 362.056C100.154 361.085 100.327 360.245 100.673 359.536C101.019 358.828 101.504 358.282 102.13 357.898C102.762 357.513 103.505 357.321 104.362 357.321C105.24 357.321 105.99 357.524 106.61 357.931C107.23 358.331 107.7 358.908 108.018 359.66C108.336 360.412 108.482 361.31 108.454 362.353H107.219V361.924C107.197 360.772 106.947 359.902 106.47 359.314C105.998 358.727 105.306 358.433 104.395 358.433C103.44 358.433 102.707 358.743 102.196 359.364C101.691 359.984 101.438 360.868 101.438 362.015C101.438 363.135 101.691 364.005 102.196 364.625C102.707 365.24 103.429 365.548 104.362 365.548C104.999 365.548 105.553 365.402 106.025 365.111C106.503 364.815 106.879 364.389 107.153 363.835L108.281 364.271C107.93 365.045 107.411 365.647 106.725 366.075C106.044 366.497 105.273 366.709 104.411 366.709ZM101.01 362.353V361.34H107.804V362.353H101.01ZM112.365 366.462L109.137 357.568H110.364L112.991 364.881L115.601 357.568H116.844L113.616 366.462H112.365ZM121.765 366.709C120.898 366.709 120.146 366.517 119.509 366.132C118.877 365.748 118.386 365.207 118.035 364.51C117.683 363.813 117.508 362.995 117.508 362.056C117.508 361.085 117.681 360.245 118.027 359.536C118.372 358.828 118.858 358.282 119.484 357.898C120.115 357.513 120.859 357.321 121.716 357.321C122.594 357.321 123.343 357.524 123.964 357.931C124.584 358.331 125.053 358.908 125.372 359.66C125.69 360.412 125.836 361.31 125.808 362.353H124.573V361.924C124.551 360.772 124.301 359.902 123.824 359.314C123.352 358.727 122.66 358.433 121.749 358.433C120.793 358.433 120.061 358.743 119.55 359.364C119.045 359.984 118.792 360.868 118.792 362.015C118.792 363.135 119.045 364.005 119.55 364.625C120.061 365.24 120.782 365.548 121.716 365.548C122.352 365.548 122.907 365.402 123.379 365.111C123.857 364.815 124.233 364.389 124.507 363.835L125.635 364.271C125.284 365.045 124.765 365.647 124.079 366.075C123.398 366.497 122.627 366.709 121.765 366.709ZM118.364 362.353V361.34H125.158V362.353H118.364ZM133.818 366.462V361.924C133.818 361.43 133.771 360.978 133.678 360.566C133.584 360.149 133.433 359.786 133.225 359.479C133.022 359.166 132.755 358.924 132.426 358.754C132.102 358.584 131.707 358.499 131.24 358.499C130.812 358.499 130.433 358.573 130.104 358.721C129.78 358.869 129.505 359.084 129.28 359.364C129.061 359.638 128.893 359.973 128.778 360.368C128.663 360.763 128.605 361.214 128.605 361.719L127.749 361.529C127.749 360.618 127.908 359.852 128.226 359.232C128.545 358.611 128.984 358.142 129.544 357.824C130.104 357.505 130.746 357.346 131.471 357.346C132.003 357.346 132.467 357.428 132.862 357.593C133.263 357.758 133.601 357.98 133.875 358.26C134.155 358.54 134.38 358.861 134.55 359.224C134.721 359.58 134.844 359.962 134.921 360.368C134.998 360.769 135.036 361.17 135.036 361.57V366.462H133.818ZM127.386 366.462V357.568H128.481V359.759H128.605V366.462H127.386ZM140.574 366.684C140.042 366.684 139.575 366.602 139.174 366.437C138.779 366.272 138.441 366.05 138.161 365.77C137.887 365.49 137.665 365.172 137.494 364.815C137.324 364.453 137.201 364.071 137.124 363.67C137.047 363.264 137.008 362.861 137.008 362.46V357.568H138.227V362.106C138.227 362.594 138.274 363.047 138.367 363.464C138.461 363.882 138.609 364.247 138.812 364.56C139.02 364.867 139.287 365.106 139.611 365.276C139.94 365.446 140.338 365.531 140.805 365.531C141.233 365.531 141.609 365.457 141.933 365.309C142.262 365.161 142.537 364.949 142.756 364.675C142.981 364.395 143.152 364.057 143.267 363.662C143.382 363.261 143.44 362.811 143.44 362.312L144.296 362.501C144.296 363.412 144.137 364.178 143.819 364.798C143.5 365.419 143.061 365.888 142.501 366.207C141.941 366.525 141.299 366.684 140.574 366.684ZM143.563 366.462V364.271H143.44V357.568H144.65V366.462H143.563ZM150.715 366.709C149.848 366.709 149.096 366.517 148.459 366.132C147.827 365.748 147.336 365.207 146.985 364.51C146.633 363.813 146.458 362.995 146.458 362.056C146.458 361.085 146.631 360.245 146.977 359.536C147.322 358.828 147.808 358.282 148.434 357.898C149.065 357.513 149.809 357.321 150.666 357.321C151.544 357.321 152.293 357.524 152.914 357.931C153.534 358.331 154.003 358.908 154.322 359.66C154.64 360.412 154.786 361.31 154.758 362.353H153.523V361.924C153.501 360.772 153.251 359.902 152.774 359.314C152.302 358.727 151.61 358.433 150.699 358.433C149.743 358.433 149.01 358.743 148.5 359.364C147.995 359.984 147.742 360.868 147.742 362.015C147.742 363.135 147.995 364.005 148.5 364.625C149.01 365.24 149.732 365.548 150.666 365.548C151.302 365.548 151.857 365.402 152.329 365.111C152.807 364.815 153.183 364.389 153.457 363.835L154.585 364.271C154.234 365.045 153.715 365.647 153.029 366.075C152.348 366.497 151.577 366.709 150.715 366.709ZM147.314 362.353V361.34H154.108V362.353H147.314Z" fill="white"/>
<path d="M24.4723 525.23V517.078H26.9463C27.0331 517.078 27.1803 517.08 27.3879 517.084C27.5992 517.087 27.8011 517.102 27.9936 517.129C28.6126 517.216 29.1297 517.446 29.5448 517.82C29.96 518.193 30.2714 518.669 30.4789 519.246C30.6865 519.824 30.7903 520.46 30.7903 521.154C30.7903 521.849 30.6865 522.484 30.4789 523.062C30.2714 523.639 29.96 524.115 29.5448 524.489C29.1297 524.862 28.6126 525.092 27.9936 525.179C27.8049 525.202 27.603 525.217 27.3879 525.225C27.1727 525.228 27.0255 525.23 26.9463 525.23H24.4723ZM25.3328 524.432H26.9463C27.101 524.432 27.2671 524.428 27.4445 524.421C27.6256 524.409 27.7804 524.39 27.9087 524.364C28.3843 524.281 28.7673 524.089 29.058 523.787C29.3523 523.485 29.5675 523.107 29.7033 522.654C29.8392 522.198 29.9071 521.698 29.9071 521.154C29.9071 520.607 29.8392 520.105 29.7033 519.648C29.5675 519.191 29.3523 518.814 29.058 518.516C28.7636 518.218 28.3805 518.027 27.9087 517.944C27.7804 517.918 27.6237 517.901 27.4388 517.893C27.2576 517.882 27.0935 517.876 26.9463 517.876H25.3328V524.432ZM34.6669 525.4C34.0706 525.4 33.5535 525.268 33.1157 525.004C32.6817 524.74 32.3439 524.368 32.1023 523.888C31.8608 523.409 31.74 522.847 31.74 522.201C31.74 521.533 31.8589 520.956 32.0967 520.469C32.3344 519.982 32.6685 519.607 33.0987 519.342C33.5328 519.078 34.0442 518.946 34.6329 518.946C35.2368 518.946 35.752 519.086 36.1785 519.365C36.605 519.641 36.9277 520.037 37.1466 520.554C37.3655 521.071 37.4655 521.688 37.4466 522.405H36.5974V522.111C36.5823 521.318 36.4106 520.72 36.0822 520.316C35.7577 519.912 35.2821 519.71 34.6556 519.71C33.9989 519.71 33.495 519.924 33.144 520.35C32.7968 520.777 32.6232 521.384 32.6232 522.173C32.6232 522.943 32.7968 523.541 33.144 523.968C33.495 524.39 33.9913 524.602 34.6329 524.602C35.0708 524.602 35.4519 524.502 35.7765 524.302C36.1049 524.098 36.3634 523.805 36.5521 523.424L37.3277 523.724C37.0862 524.256 36.7295 524.67 36.2577 524.964C35.7897 525.255 35.2595 525.4 34.6669 525.4ZM32.3288 522.405V521.709H36.9994V522.405H32.3288ZM41.4487 525.4C40.8864 525.4 40.4108 525.259 40.0221 524.975C39.6333 524.689 39.339 524.302 39.1389 523.815C38.9389 523.324 38.8389 522.775 38.8389 522.167C38.8389 521.548 38.9389 520.997 39.1389 520.514C39.3427 520.027 39.6409 519.644 40.0334 519.365C40.4259 519.086 40.909 518.946 41.4827 518.946C42.0413 518.946 42.5206 519.088 42.9207 519.371C43.3208 519.654 43.6265 520.039 43.8378 520.526C44.053 521.013 44.1605 521.56 44.1605 522.167C44.1605 522.779 44.053 523.328 43.8378 523.815C43.6227 524.302 43.3132 524.689 42.9094 524.975C42.5055 525.259 42.0186 525.4 41.4487 525.4ZM38.6973 525.23V517.078H39.5352V520.628H39.4446V525.23H38.6973ZM41.3638 524.624C41.7903 524.624 42.1451 524.517 42.4282 524.302C42.7112 524.087 42.9226 523.794 43.0622 523.424C43.2056 523.051 43.2774 522.632 43.2774 522.167C43.2774 521.707 43.2075 521.292 43.0679 520.922C42.9282 520.552 42.715 520.26 42.4282 520.044C42.1451 519.829 41.7846 519.722 41.3468 519.722C40.9203 519.722 40.5656 519.826 40.2825 520.033C40.0032 520.241 39.7937 520.529 39.6541 520.899C39.5145 521.265 39.4446 521.688 39.4446 522.167C39.4446 522.639 39.5145 523.062 39.6541 523.436C39.7937 523.805 40.0051 524.096 40.2882 524.307C40.5712 524.519 40.9298 524.624 41.3638 524.624ZM45.5169 517.955V517.021H46.3492V517.955H45.5169ZM45.5169 525.23V519.116H46.3492V525.23H45.5169ZM51.3753 525.23C51.0318 525.302 50.6921 525.33 50.3562 525.315C50.0241 525.3 49.7259 525.228 49.4617 525.1C49.2013 524.972 49.0032 524.772 48.8673 524.5C48.7578 524.273 48.6975 524.045 48.6861 523.815C48.6786 523.581 48.6748 523.315 48.6748 523.017V517.418H49.5014V522.983C49.5014 523.239 49.5032 523.454 49.507 523.628C49.5146 523.798 49.5542 523.949 49.6259 524.081C49.7618 524.334 49.9769 524.485 50.2713 524.534C50.5695 524.583 50.9375 524.572 51.3753 524.5V525.23ZM47.367 519.829V519.116H51.3753V519.829H47.367ZM58.1472 525.4C57.3357 525.4 56.6507 525.221 56.0921 524.862C55.5335 524.5 55.1108 524 54.824 523.362C54.5371 522.724 54.3937 521.988 54.3937 521.154C54.3937 520.32 54.5371 519.584 54.824 518.946C55.1108 518.308 55.5335 517.81 56.0921 517.452C56.6507 517.089 57.3357 516.908 58.1472 516.908C59.0945 516.908 59.8682 517.152 60.4683 517.638C61.0684 518.121 61.4798 518.771 61.7025 519.586L60.8533 519.807C60.6797 519.161 60.3683 518.65 59.9192 518.272C59.47 517.895 58.8794 517.706 58.1472 517.706C57.5093 517.706 56.9791 517.852 56.5564 518.142C56.1336 518.433 55.8147 518.839 55.5996 519.359C55.3882 519.876 55.2788 520.475 55.2712 521.154C55.2675 521.833 55.3712 522.432 55.5826 522.949C55.7977 523.466 56.1185 523.872 56.545 524.166C56.9753 524.457 57.5093 524.602 58.1472 524.602C58.8794 524.602 59.47 524.413 59.9192 524.036C60.3683 523.654 60.6797 523.143 60.8533 522.501L61.7025 522.722C61.4798 523.537 61.0684 524.189 60.4683 524.675C59.8682 525.159 59.0945 525.4 58.1472 525.4ZM64.701 525.4C64.2405 525.4 63.8537 525.317 63.5404 525.151C63.2309 524.985 62.9988 524.764 62.8441 524.489C62.6893 524.213 62.6119 523.913 62.6119 523.588C62.6119 523.256 62.678 522.973 62.8101 522.739C62.946 522.501 63.129 522.307 63.3592 522.156C63.5932 522.005 63.8631 521.89 64.1688 521.811C64.4783 521.735 64.8199 521.669 65.1935 521.613C65.5709 521.552 65.9389 521.501 66.2975 521.46C66.6598 521.414 66.9768 521.371 67.2486 521.33L66.9542 521.511C66.9655 520.907 66.8485 520.46 66.6032 520.169C66.3578 519.878 65.9314 519.733 65.3237 519.733C64.9048 519.733 64.55 519.827 64.2594 520.016C63.9725 520.205 63.7706 520.503 63.6536 520.911L62.8441 520.673C62.9837 520.126 63.2649 519.701 63.6876 519.399C64.1103 519.097 64.6595 518.946 65.335 518.946C65.8936 518.946 66.3673 519.052 66.756 519.263C67.1485 519.471 67.426 519.773 67.5882 520.169C67.6637 520.346 67.7128 520.545 67.7354 520.763C67.7581 520.982 67.7694 521.205 67.7694 521.431V525.23H67.0278V523.696L67.2429 523.787C67.0353 524.311 66.7126 524.711 66.2748 524.987C65.837 525.262 65.3124 525.4 64.701 525.4ZM64.7972 524.681C65.186 524.681 65.5256 524.611 65.8162 524.472C66.1069 524.332 66.3409 524.141 66.5183 523.9C66.6956 523.654 66.8108 523.379 66.8636 523.073C66.9089 522.877 66.9334 522.662 66.9372 522.428C66.941 522.19 66.9429 522.013 66.9429 521.896L67.2599 522.06C66.9768 522.098 66.6692 522.135 66.3371 522.173C66.0087 522.211 65.6842 522.254 65.3633 522.303C65.0463 522.352 64.7595 522.411 64.5028 522.479C64.3292 522.528 64.1613 522.598 63.999 522.688C63.8367 522.775 63.7027 522.892 63.597 523.039C63.4951 523.186 63.4442 523.37 63.4442 523.588C63.4442 523.766 63.4876 523.938 63.5744 524.104C63.6649 524.27 63.8084 524.407 64.0046 524.517C64.2047 524.626 64.4689 524.681 64.7972 524.681ZM69.2432 525.23V519.116H69.9905V520.588L69.8433 520.395C69.9112 520.214 69.9999 520.048 70.1094 519.897C70.2188 519.743 70.3377 519.616 70.4661 519.518C70.6246 519.378 70.8095 519.273 71.0209 519.201C71.2322 519.125 71.4455 519.082 71.6606 519.071C71.8757 519.056 72.072 519.071 72.2494 519.116V519.897C72.0267 519.841 71.7833 519.827 71.5191 519.858C71.2549 519.888 71.0114 519.993 70.7888 520.175C70.5849 520.333 70.4321 520.524 70.3302 520.746C70.2283 520.965 70.1603 521.199 70.1264 521.448C70.0924 521.694 70.0754 521.937 70.0754 522.179V525.23H69.2432ZM75.5849 525.4C75.015 525.4 74.5281 525.259 74.1242 524.975C73.7204 524.689 73.4109 524.302 73.1958 523.815C72.9807 523.328 72.8731 522.779 72.8731 522.167C72.8731 521.56 72.9788 521.013 73.1901 520.526C73.4053 520.039 73.7129 519.654 74.1129 519.371C74.513 519.088 74.9923 518.946 75.5509 518.946C76.1246 518.946 76.6077 519.086 77.0002 519.365C77.3927 519.644 77.689 520.027 77.889 520.514C78.0928 520.997 78.1947 521.548 78.1947 522.167C78.1947 522.775 78.0947 523.324 77.8947 523.815C77.6947 524.302 77.4003 524.689 77.0115 524.975C76.6228 525.259 76.1472 525.4 75.5849 525.4ZM75.6698 524.624C76.1038 524.624 76.4624 524.519 76.7454 524.307C77.0285 524.096 77.2399 523.805 77.3795 523.436C77.5192 523.062 77.589 522.639 77.589 522.167C77.589 521.688 77.5192 521.265 77.3795 520.899C77.2399 520.529 77.0285 520.241 76.7454 520.033C76.4662 519.826 76.1133 519.722 75.6868 519.722C75.249 519.722 74.8866 519.829 74.5998 520.044C74.313 520.26 74.0997 520.552 73.9601 520.922C73.8242 521.292 73.7563 521.707 73.7563 522.167C73.7563 522.632 73.8261 523.051 73.9657 523.424C74.1092 523.794 74.3224 524.087 74.6055 524.302C74.8885 524.517 75.2433 524.624 75.6698 524.624ZM77.589 525.23V520.628H77.4984V517.078H78.3363V525.23H77.589Z" fill="white"/>
<path d="M330.787 537.725C330.754 540.293 333.075 541.726 334.824 542.578C336.62 543.453 337.224 544.013 337.217 544.795C337.203 545.991 335.784 546.519 334.455 546.54C332.138 546.576 330.79 545.914 329.719 545.414L328.884 549.32C329.959 549.816 331.949 550.248 334.013 550.267C338.858 550.267 342.027 547.875 342.044 544.168C342.063 539.462 335.535 539.201 335.58 537.098C335.595 536.46 336.204 535.78 337.538 535.607C338.198 535.519 340.02 535.452 342.085 536.404L342.896 532.624C341.785 532.219 340.357 531.832 338.58 531.832C334.02 531.832 330.813 534.256 330.787 537.725ZM350.687 532.158C349.803 532.158 349.057 532.674 348.725 533.466L341.804 549.989H346.645L347.609 547.327H353.524L354.083 549.989H358.35L354.627 532.158H350.687ZM351.364 536.975L352.762 543.67H348.935L351.364 536.975ZM324.917 532.158L321.102 549.989H325.715L329.529 532.158H324.917ZM318.093 532.158L313.292 544.294L311.349 533.975C311.121 532.823 310.221 532.158 309.222 532.158H301.373L301.263 532.675C302.874 533.025 304.705 533.589 305.814 534.192C306.493 534.561 306.687 534.883 306.91 535.759L310.588 549.989H315.464L322.938 532.158H318.093Z" fill="white"/>
</g>
<defs>
<clipPath id="clip0_154_3546">
<rect x="0.717773" y="0.232422" width="373.274" height="569.102" rx="7.06959" fill="white"/>
</clipPath>
</defs>
</svg>
