<svg width="658" height="482" viewBox="0 0 658 482" fill="none" xmlns="http://www.w3.org/2000/svg">
<path d="M221.405 294.709C217.271 291.36 210.798 291.167 206.958 294.277L122.099 363.02C118.259 366.13 118.498 371.374 122.631 374.723L233.408 464.461C237.542 467.809 244.01 467.999 247.85 464.888L332.71 396.145C336.549 393.035 336.316 387.795 332.182 384.447L221.405 294.709Z" fill="white"/>
<path d="M293.988 58.3643C293.988 58.3643 304.177 71.5899 315.77 79.068C327.364 86.5465 333.459 95.2961 328.161 111.505C328.161 111.505 338.399 122.958 321.24 142.01C304.081 161.062 288.057 157.661 280.739 150.914C280.739 150.914 257.306 143.63 249.72 131.015C242.133 118.4 246.338 114.201 245.478 99.3176C244.613 84.4368 293.988 58.3643 293.988 58.3643Z" fill="#003399"/>
<path d="M256.484 308.589C256.484 308.589 259.427 324.379 256.484 328.846C253.541 333.314 246.341 337.43 238.66 338.185C231.94 338.846 229.527 330.991 235.452 324.425C241.377 317.86 245.33 315.445 245.075 306.008L256.484 308.589Z" fill="#003399"/>
<path d="M247.944 179.076C247.944 179.076 238.964 282.582 235.452 308.384C235.452 308.384 257.161 322.445 271.096 309.965C271.096 309.965 278.523 220.237 277.399 183.622L247.944 179.076Z" fill="#1E40AF"/>
<path d="M247.464 184.602L245.997 201.158C245.997 201.158 261.678 215.388 277.355 208.256L277.516 189.242L247.464 184.602Z" fill="#003399"/>
<path d="M311.044 302.938C311.044 302.938 316.665 317.222 314.595 322.568C312.526 327.914 306.268 334.386 298.955 337.769C292.558 340.73 288.842 333.951 293.434 325.543C298.026 317.136 301.435 313.43 299.534 304.376L311.044 302.938Z" fill="#003399"/>
<path d="M280.067 180.387C280.067 180.387 289.505 283.786 290.624 310.001C290.624 310.001 314.131 316.133 325.45 299.229C325.45 299.229 315.992 201.318 309.806 164.462L280.067 180.387Z" fill="#1E40AF"/>
<path d="M280.056 178.107L282.652 203.286C282.652 203.286 299.135 199.035 313.079 186.713L310.407 164.945L280.056 178.107Z" fill="#003399"/>
<path d="M247.036 104.091C245.162 108.476 232.939 120.21 228.505 123.817C223.188 128.139 201.45 124.528 199.193 125.196C189.54 128.056 189.633 153.796 198.811 161.029C210.568 170.294 251.863 151.406 255.556 139.616C262.55 117.259 262.555 108.89 262.555 108.89L247.036 104.091Z" fill="#0DDE65"/>
<path d="M249.329 147.293C243.431 152.138 234.287 156.993 225.207 160.104C226.572 155.644 234.972 155.859 238.548 148.898C243.593 139.079 243.461 123.323 243.461 123.323L249.023 144.563C249.023 144.563 249.166 145.668 249.329 147.293Z" fill="#003399"/>
<path d="M284.107 88.5089L252.261 91.1245C252.261 91.1245 241.813 107.008 242.027 120.42C242.208 131.839 246.23 142.398 246.23 142.398L239.97 188.837C239.97 188.837 261.181 202.136 282.622 192.073C304.062 182.012 316.327 162.638 316.327 162.638L284.107 88.5089Z" fill="#0DDE65"/>
<path d="M282.476 93.9549C282.476 93.9549 275.993 112.89 266.255 116.276C256.517 119.662 250.614 114.417 251.56 105.999C252.507 97.5805 282.476 93.9549 282.476 93.9549Z" fill="#003399"/>
<path d="M281.201 113.459L285.267 142.74C291.045 157.732 294.101 169.643 301.679 175.825C301.679 175.825 309.217 175.915 316.325 162.538L296.107 113.591L281.201 113.459Z" fill="#003399"/>
<path d="M336.459 174.366C336.459 174.366 346.602 174.615 352.928 176.806C359.689 179.147 355.528 184.836 350.728 184.149C347.882 183.743 347.566 184.368 347.566 184.368C347.566 184.368 351.813 187.317 355.237 192.851C358.661 198.388 355.04 201.268 351.93 198.912C348.822 196.559 343.954 194.837 343.954 194.837C343.954 194.837 347.373 201.592 347.749 205.754C348.128 209.918 344.522 212.673 342.732 208.433C340.942 204.191 338.858 201.311 338.858 201.311C338.858 201.311 338.395 207.295 337.934 209.76C337.471 212.224 332.331 213.283 332.202 208.516C332.073 203.749 330.816 195.405 330.816 195.405L336.459 174.366Z" fill="#616161"/>
<path d="M285.453 93.5281C281.362 95.0812 275.966 97.7063 279.26 115.029C282.55 132.352 316.376 186.703 320.495 198.337C320.495 198.337 341.724 201.768 340.953 172.443C340.953 172.443 311.331 125.105 301.266 109.631C291.198 94.1522 290.145 91.7462 285.453 93.5281Z" fill="#0DDE65"/>
<path d="M259.325 32.9988C274.653 32.9988 287.077 50.4327 287.077 71.9382C287.077 93.4437 274.653 110.877 259.325 110.877C243.998 110.877 231.573 93.4437 231.573 71.9382C231.573 50.4327 243.998 32.9988 259.325 32.9988Z" fill="#616161"/>
<path d="M282.152 33.8664C282.152 33.8664 273.514 11.7424 260.128 14.1889C246.743 16.6349 245.649 24.9224 245.649 24.9224C245.649 24.9224 234.612 15.0889 223.449 29.7481C212.29 44.4073 219.495 67.2373 233.759 64.4373C233.759 64.4373 239.861 76.8869 249.259 67.8471C249.259 67.8471 260.418 81.1095 266.725 64.6627C266.725 64.6627 267.628 72.9106 274.804 72.7496C274.804 72.7496 273.543 57.4505 281.612 60.9046C289.681 64.3592 287.145 79.1499 280.621 82.6831C279.473 94.2489 288.601 110.039 301.83 96.5534C312.979 85.1862 307.329 65.8152 298.755 63.2115C298.755 63.2115 304.547 28.983 282.152 33.8664Z" fill="#1E40AF"/>
<path d="M315.555 357.707C324.287 357.707 331.365 361.943 331.365 367.167C331.365 372.391 324.287 376.627 315.555 376.627C306.822 376.627 299.744 372.391 299.744 367.167C299.744 361.943 306.822 357.707 315.555 357.707Z" fill="white"/>
<path d="M334.197 362.26C345.978 362.26 355.527 367.531 355.527 374.031C355.527 380.532 345.978 385.803 334.197 385.803C322.417 385.803 312.867 380.532 312.867 374.031C312.867 367.531 322.417 362.26 334.197 362.26Z" fill="white"/>
<path d="M293.039 348.569C290.357 336.36 279.949 307.374 289.634 294.436C298.59 282.473 306.703 303.173 307.241 318.785C307.241 318.785 307.783 252.377 323.511 254.436C339.239 256.496 329.348 297.627 324.698 314.599C324.698 314.599 341.972 282.662 350.073 297.134C358.174 311.606 321.473 359.487 321.473 359.487C318.856 364.218 312.485 369.055 305.724 367.687C300.132 366.555 294.866 356.889 293.039 348.569Z" fill="#0DDE65"/>
<path d="M322.588 270.255C322.681 269.645 323.11 269.258 323.544 269.39C323.979 269.52 324.255 270.121 324.162 270.731C324.162 270.731 313.277 341.466 305.401 368.219C305.232 368.795 304.761 369.07 304.35 368.832C303.94 368.594 303.744 367.933 303.913 367.357C311.757 340.711 322.588 270.255 322.588 270.255Z" fill="#0DDE65"/>
<path d="M296.984 314.321C296.955 313.699 297.291 313.161 297.735 313.121C298.178 313.081 298.561 313.554 298.59 314.175C298.59 314.175 299.081 324.804 301.49 335.157C303.059 341.897 305.423 348.551 309.071 351.898C309.443 352.239 309.548 352.939 309.305 353.462C309.062 353.983 308.562 354.13 308.191 353.789C304.268 350.19 301.647 343.105 299.96 335.858C297.486 325.23 296.984 314.321 296.984 314.321Z" fill="#0DDE65"/>
<path d="M312.144 339.386C311.711 339.525 311.278 339.147 311.178 338.54C311.076 337.933 311.346 337.325 311.78 337.184C311.78 337.184 329.78 331.346 338.321 313.79C338.571 313.274 339.073 313.143 339.44 313.494C339.807 313.846 339.901 314.549 339.651 315.063C330.791 333.274 312.144 339.386 312.144 339.386Z" fill="#0DDE65"/>
<path d="M330.903 347.103C340.435 346.954 337.808 356.187 343.806 361.629C349.301 366.613 349.178 377.509 340.371 379.759C331.564 382.009 324.093 381.652 318.002 379.066C307.014 374.401 309.203 363.412 316.23 360.203C322.045 357.548 323.83 347.214 330.903 347.103Z" fill="#003399"/>
<path d="M333.398 353.859C334.614 353.859 335.599 355.19 335.599 356.831C335.599 358.474 334.614 359.805 333.398 359.805C332.184 359.805 331.198 358.474 331.198 356.831C331.198 355.19 332.184 353.859 333.398 353.859Z" fill="white"/>
<path d="M336.71 360.492C337.321 360.492 337.818 361.13 337.818 361.914C337.818 362.701 337.321 363.338 336.71 363.338C336.098 363.338 335.602 362.701 335.602 361.914C335.602 361.13 336.098 360.492 336.71 360.492Z" fill="white"/>
<path d="M138.294 349.903L196.519 302.733C199.924 299.975 205.878 300.325 209.805 303.506L299.132 375.867V360.406H318.414V395.632H318.377C318.201 397.132 317.457 398.534 316.119 399.618L240.902 460.548C237.497 463.3 231.548 462.956 227.616 459.776L122.259 374.426C120.122 372.699 119.021 370.48 119.008 368.377V333.157H138.294V349.903Z" fill="#1E40AF"/>
<path d="M209.802 268.93C205.87 265.745 199.915 265.398 196.512 268.155L121.297 329.085C117.894 331.842 118.322 336.666 122.253 339.851L227.611 425.198C231.542 428.384 237.492 428.726 240.896 425.969L316.111 365.039C319.514 362.282 319.09 357.463 315.159 354.278L209.802 268.93Z" fill="#1E40AF"/>
<path d="M268.433 329.225V249.652C268.433 247.262 267.981 243.613 266.254 240.509C263.468 235.502 252.083 215.035 249.298 210.028C248.91 209.332 248.434 208.75 247.891 208.31C242.858 204.233 221.137 186.637 212.62 179.738C211.014 178.437 209.025 178.525 207.481 179.961C195.126 191.446 135.839 237.63 135.839 237.63L197.125 386.986L268.433 329.225Z" fill="#0DDE65"/>
<path d="M197.226 305.165C197.226 302.716 196.057 299.526 195.082 297.785C194.693 297.092 180.776 272.805 177.99 267.797C177.602 267.101 177.126 266.52 176.583 266.079C172.278 262.593 152.153 246.29 141.094 237.33C139.585 236.108 137.721 236.108 136.212 237.334C134.698 238.555 133.766 240.817 133.766 243.265V335.67L197.226 387.077V305.165Z" fill="#1E40AF"/>
<path d="M256.343 275.021L209.5 312.966L209.5 376.977L256.343 339.032L256.343 275.021Z" fill="#003399"/>
<path d="M217.099 306.855L209.258 313.206L209.491 377.009L242.081 403.795L289.519 365.367L256.596 338.851L217.099 306.855Z" fill="white"/>
<path d="M145.614 290.516L144.474 287.745L152.392 281.331L152.398 281.34C155.237 279.269 159.074 279.692 163.295 283.114C172.029 290.188 179.12 307.421 179.12 321.572C179.12 328.641 177.347 333.615 174.484 335.935L166.769 342.186L165.589 339.321C164.019 338.896 162.337 337.993 160.591 336.581C155.32 332.311 158.449 319.464 155.573 310.702C153.683 304.947 144.766 303.733 144.766 298.122C144.766 295.22 145.065 292.675 145.614 290.516Z" fill="#1E40AF"/>
<path d="M155.572 340.655C146.832 333.575 139.747 316.357 139.747 302.196C139.747 288.037 146.832 282.298 155.572 289.378C164.311 296.457 171.396 313.675 171.396 327.835C171.396 341.995 164.311 347.734 155.572 340.655Z" fill="#616161"/>
<path d="M143.85 307.066L143.24 305.582L147.48 302.147L147.484 302.152C149.003 301.042 151.058 301.269 153.319 303.102C157.997 306.889 161.794 316.119 161.794 323.698C161.794 327.483 160.845 330.147 159.311 331.39L155.18 334.737L154.548 333.202C153.706 332.975 152.806 332.492 151.871 331.735C149.048 329.448 150.724 322.569 149.184 317.877C148.172 314.795 143.397 314.144 143.397 311.14C143.397 309.585 143.556 308.222 143.85 307.066Z" fill="#003399"/>
<path d="M149.183 333.918C144.503 330.127 140.709 320.905 140.709 313.322C140.709 305.739 144.503 302.665 149.183 306.456C153.863 310.248 157.658 319.469 157.658 327.052C157.658 334.635 153.863 337.709 149.183 333.918Z" fill="#003399"/>
<path d="M145.847 317.312C147.378 316.084 149.343 316.821 150.23 318.969C151.118 321.117 150.597 323.879 149.065 325.122L142.307 330.6C141.309 331.398 140.088 331.398 139.1 330.6C138.101 329.787 137.491 328.298 137.491 326.687V253.603C137.491 251.118 138.922 249.092 140.698 249.092C142.474 249.092 143.916 251.118 143.916 253.603V318.892L145.847 317.312Z" fill="#0DDE65"/>
<path d="M140.698 225.836C146.983 225.836 152.078 232.985 152.078 241.803C152.078 250.623 146.983 257.771 140.698 257.771C134.413 257.771 129.318 250.623 129.318 241.803C129.318 232.985 134.413 225.836 140.698 225.836Z" fill="#003399"/>
<path d="M136.348 231.927C137.739 231.927 138.867 233.51 138.867 235.462C138.867 237.414 137.739 238.996 136.348 238.996C134.957 238.996 133.829 237.414 133.829 235.462C133.829 233.51 134.957 231.927 136.348 231.927Z" fill="white"/>
<path d="M218.826 325.922L242.58 306.679L265.36 325.132L241.606 344.375L218.826 325.922Z" fill="#616161"/>
<path d="M241.599 344.37L265.353 325.128L265.353 362.033L241.599 381.276L241.599 344.37Z" fill="#1E40AF"/>
<path d="M218.819 325.913L241.598 344.365L241.598 381.272L218.818 362.819L218.819 325.913Z" fill="#1E40AF"/>
<path d="M175.266 221.954L202.977 198.807C205.411 196.833 209.583 196.983 212.516 199.073L215.357 197.651V204.408L215.334 204.421C215.209 205.557 214.649 206.622 213.64 207.44L174.262 240.044C171.713 242.101 167.258 241.842 164.316 239.46C162.868 238.291 162.054 236.817 161.906 235.383L161.883 235.396V228.639L175.266 221.954Z" fill="white"/>
<path d="M212.927 193.347C209.984 190.963 205.527 190.704 202.979 192.768L163.603 225.369C161.055 227.432 161.375 231.043 164.314 233.424C167.257 235.808 171.714 236.066 174.262 234.003L213.638 201.402C216.186 199.338 215.865 195.728 212.927 193.347Z" fill="#0DDE65"/>
<path d="M208.311 197.255C206.787 196.021 203.88 196.372 201.822 198.04L169.895 224.267C167.837 225.933 167.404 228.289 168.925 229.521C170.449 230.755 173.357 230.404 175.414 228.737L207.341 202.51C209.399 200.843 209.832 198.488 208.311 197.255Z" fill="#003399"/>
<path d="M190.029 216.732L182.09 223.254L180.025 224.95L175.414 228.738C175.35 228.79 175.285 228.843 175.217 228.89C174.684 229.291 174.1 229.61 173.503 229.834C172.246 230.31 170.929 230.391 169.886 230.039C167.262 227.028 165.163 222.178 163.91 215.622C160.158 195.969 165.431 168.336 175.693 153.939C180.813 146.754 186.216 144.224 190.806 145.954C192.154 146.454 193.431 147.326 194.613 148.56C195.852 149.841 196.983 151.523 197.971 153.581C198.745 155.187 199.435 157.021 200.022 159.079C200.385 160.342 200.708 161.685 200.99 163.115C201.017 163.239 201.041 163.367 201.064 163.491C203.329 175.354 190.84 183.949 187.418 196.96C185.958 202.511 188.905 210.353 190.029 216.732Z" fill="#0DDE65"/>
<path d="M198.508 148.841L190.81 145.949L190.806 145.954L189.469 150.894L186.474 161.919L179.295 188.356L197.122 157.693L197.217 157.531L197.261 157.298L197.971 153.581L198.85 148.974V148.97L198.508 148.841ZM174.677 206.979V206.97L171.645 200.314L173.099 223.388L173.503 229.834C174.1 229.61 174.684 229.291 175.217 228.89C175.285 228.843 175.35 228.79 175.414 228.738L180.026 224.95L182.09 223.254L174.677 206.979Z" fill="#0DDE65"/>
<path d="M207.954 201.944C207.767 202.139 207.563 202.329 207.339 202.511L203.132 205.969L199.56 208.904L190.029 216.732L182.09 223.254L180.025 224.95L175.414 228.738C175.35 228.79 175.285 228.843 175.217 228.89C174.416 227.294 173.706 225.455 173.099 223.388C172.664 221.925 172.284 220.343 171.961 218.647C168.206 198.98 173.479 171.366 183.74 156.964C185.632 154.31 187.557 152.295 189.469 150.894C191.21 149.608 192.939 148.836 194.613 148.56C195.954 148.336 197.261 148.431 198.508 148.841L198.85 148.97V148.974C203.451 150.689 207.244 156.659 209.122 166.507C211.146 177.112 210.548 190.033 207.954 201.944Z" fill="#1E40AF"/>
<path d="M206.521 184.644C206.518 184.864 206.511 185.088 206.501 185.307C206.497 185.397 206.494 185.493 206.49 185.588C206.484 185.802 206.473 186.017 206.463 186.231C206.446 186.641 206.422 187.05 206.395 187.46C206.385 187.632 206.375 187.803 206.361 187.975C206.348 188.199 206.331 188.418 206.314 188.642C206.297 188.866 206.28 189.09 206.259 189.313C206.222 189.761 206.181 190.209 206.134 190.652C206.113 190.876 206.09 191.1 206.063 191.324C206.046 191.5 206.025 191.677 206.005 191.848C205.92 192.567 205.828 193.287 205.726 194.006C205.696 194.23 205.662 194.454 205.628 194.678C205.394 196.236 205.119 197.789 204.799 199.323C204.755 199.542 204.708 199.762 204.66 199.981C204.616 200.195 204.568 200.414 204.518 200.633C204.436 201.01 204.348 201.381 204.259 201.753C204.13 202.296 203.995 202.839 203.852 203.382C203.645 204.178 203.428 204.969 203.197 205.75C203.173 205.826 203.153 205.898 203.132 205.969L199.56 208.904L190.029 216.732L182.09 223.254L180.025 224.95C180.015 224.936 180.002 224.922 179.991 224.907C179.903 224.798 179.815 224.684 179.73 224.569C179.564 224.345 179.401 224.112 179.241 223.869C179.146 223.726 179.051 223.578 178.959 223.426C178.844 223.245 178.732 223.054 178.623 222.859C178.525 222.683 178.426 222.501 178.328 222.316C178.307 222.278 178.287 222.239 178.266 222.197C178.171 222.011 178.076 221.82 177.985 221.625C177.883 221.41 177.781 221.191 177.682 220.963C177.584 220.739 177.486 220.51 177.39 220.272C177.302 220.053 177.214 219.829 177.126 219.6C177.119 219.581 177.115 219.567 177.109 219.552C177.02 219.305 176.929 219.057 176.844 218.8C176.691 218.352 176.542 217.885 176.402 217.404L176.3 217.046C176.25 216.861 176.199 216.675 176.148 216.479C176.063 216.16 175.981 215.831 175.903 215.493C175.842 215.241 175.784 214.988 175.73 214.726C175.652 214.378 175.581 214.026 175.513 213.664C175.462 213.397 175.414 213.13 175.367 212.863C175.329 212.654 175.295 212.435 175.261 212.22C175.231 212.039 175.204 211.858 175.177 211.677C175.109 211.224 175.047 210.772 174.99 210.319C174.959 210.067 174.929 209.809 174.901 209.552C174.871 209.266 174.84 208.985 174.817 208.699C174.789 208.413 174.762 208.128 174.742 207.842C174.718 207.556 174.698 207.27 174.677 206.979V206.97C174.657 206.66 174.637 206.346 174.623 206.036C174.613 205.898 174.606 205.76 174.603 205.622C174.589 205.302 174.576 204.988 174.565 204.669C174.555 204.316 174.545 203.968 174.542 203.616C174.535 203.239 174.531 202.858 174.531 202.482C174.531 188.494 178.555 172.872 185.041 163.772C185.353 163.334 185.665 162.919 185.978 162.529C186.069 162.41 186.161 162.295 186.253 162.186C186.328 162.095 186.399 162.005 186.474 161.919C186.528 161.857 186.582 161.795 186.633 161.733C186.728 161.623 186.823 161.514 186.918 161.409C187.441 160.823 187.968 160.294 188.494 159.823C188.701 159.637 188.908 159.456 189.115 159.289C189.132 159.275 189.153 159.26 189.17 159.246C189.35 159.098 189.526 158.96 189.706 158.832C190.457 158.288 191.2 157.855 191.937 157.54C192.029 157.498 192.124 157.459 192.219 157.421C192.328 157.378 192.44 157.34 192.552 157.302C192.653 157.264 192.755 157.231 192.857 157.202C193.061 157.14 193.265 157.088 193.468 157.045C193.57 157.021 193.669 157.002 193.771 156.983C193.971 156.95 194.171 156.921 194.372 156.907C194.443 156.897 194.511 156.893 194.582 156.888C194.813 156.878 195.044 156.873 195.275 156.883C195.465 156.893 195.652 156.912 195.839 156.94C195.927 156.95 196.015 156.964 196.103 156.978H196.107C196.212 156.997 196.314 157.016 196.416 157.045C196.511 157.064 196.606 157.088 196.698 157.116C196.793 157.14 196.888 157.169 196.983 157.202C197.078 157.226 197.17 157.259 197.261 157.297C197.278 157.302 197.295 157.307 197.309 157.317C197.428 157.359 197.543 157.407 197.659 157.459C197.784 157.512 197.91 157.574 198.035 157.641C198.161 157.702 198.283 157.769 198.409 157.845C198.633 157.974 198.85 158.122 199.068 158.279C199.166 158.35 199.261 158.422 199.36 158.503H199.363C199.462 158.579 199.563 158.665 199.662 158.751C199.682 158.765 199.703 158.784 199.723 158.803C199.822 158.894 199.923 158.984 200.022 159.079C200.1 159.151 200.175 159.227 200.249 159.303C200.327 159.375 200.402 159.456 200.477 159.541C200.528 159.599 200.582 159.651 200.633 159.713C200.674 159.756 200.715 159.804 200.755 159.846C200.81 159.913 200.864 159.98 200.918 160.042C201.064 160.218 201.207 160.399 201.35 160.59C201.56 160.875 201.767 161.176 201.971 161.49C202.039 161.595 202.103 161.7 202.171 161.809C202.239 161.919 202.307 162.028 202.368 162.143C202.433 162.252 202.497 162.367 202.558 162.481C202.623 162.6 202.687 162.714 202.748 162.834C202.813 162.953 202.874 163.072 202.935 163.196C202.99 163.305 203.044 163.415 203.095 163.524C203.163 163.663 203.231 163.806 203.295 163.953C203.397 164.182 203.499 164.411 203.597 164.649C203.625 164.711 203.648 164.777 203.675 164.839C203.72 164.949 203.764 165.054 203.804 165.168C204.372 166.612 204.864 168.241 205.268 170.047C205.316 170.247 205.36 170.452 205.404 170.661C205.462 170.933 205.516 171.209 205.57 171.49C206.344 175.549 206.643 180.028 206.521 184.644Z" fill="#0DDE65"/>
<path d="M199.56 208.904L190.029 216.732L182.09 223.254L180.025 224.95C180.015 224.936 180.002 224.922 179.991 224.907C179.903 224.798 179.815 224.684 179.73 224.569C179.564 224.345 179.401 224.112 179.241 223.869C179.146 223.726 179.051 223.578 178.959 223.426C178.844 223.245 178.732 223.054 178.623 222.859C178.525 222.683 178.426 222.501 178.328 222.316C178.307 222.278 178.287 222.239 178.266 222.197C178.171 222.011 178.076 221.82 177.985 221.625C177.883 221.41 177.781 221.191 177.682 220.963C177.584 220.739 177.486 220.51 177.39 220.272C177.302 220.053 177.214 219.829 177.126 219.6C177.119 219.581 177.115 219.567 177.109 219.552C177.02 219.305 176.929 219.057 176.844 218.8C176.688 218.352 176.542 217.885 176.402 217.404L176.3 217.046C176.25 216.861 176.199 216.675 176.148 216.479C176.063 216.16 175.981 215.831 175.903 215.493C175.842 215.241 175.784 214.988 175.73 214.726C175.652 214.378 175.581 214.026 175.513 213.664C175.462 213.397 175.414 213.13 175.367 212.863C175.329 212.654 175.295 212.435 175.261 212.22C175.231 212.039 175.204 211.858 175.177 211.677C175.109 211.224 175.047 210.772 174.99 210.319C174.959 210.067 174.929 209.809 174.901 209.552C174.871 209.266 174.84 208.985 174.817 208.699C174.789 208.413 174.762 208.128 174.742 207.842C174.718 207.556 174.698 207.27 174.677 206.979V206.97C174.657 206.66 174.637 206.346 174.623 206.036C174.613 205.898 174.606 205.76 174.603 205.622C174.589 205.302 174.576 204.988 174.565 204.669C174.555 204.316 174.545 203.968 174.542 203.616C174.535 203.239 174.531 202.858 174.531 202.482C174.531 188.494 178.555 172.872 185.041 163.772C185.353 163.334 185.665 162.919 185.978 162.529C186.069 162.41 186.161 162.295 186.253 162.186C186.328 162.095 186.399 162.005 186.474 161.919C186.528 161.857 186.582 161.795 186.633 161.733C186.728 161.623 186.823 161.514 186.918 161.409C187.441 160.823 187.968 160.294 188.494 159.823C188.701 159.637 188.908 159.456 189.115 159.289C189.132 159.275 189.153 159.26 189.17 159.246C189.35 159.103 189.53 158.965 189.706 158.832C190.457 158.288 191.2 157.855 191.937 157.54C192.029 157.498 192.124 157.459 192.219 157.421C192.327 157.378 192.44 157.34 192.552 157.302C192.653 157.264 192.755 157.231 192.857 157.202C193.061 157.14 193.265 157.088 193.468 157.045C193.57 157.021 193.669 157.002 193.771 156.983C193.971 156.95 194.171 156.921 194.372 156.907C194.443 156.897 194.511 156.893 194.582 156.888C194.813 156.878 195.044 156.873 195.275 156.883C195.465 156.893 195.652 156.912 195.839 156.94C195.927 156.95 196.015 156.964 196.103 156.978H196.107C196.453 157.188 196.789 157.421 197.122 157.693C198.589 158.884 199.9 160.699 200.99 163.115C201.92 165.182 202.687 167.688 203.248 170.618C205.455 182.177 203.808 197.122 199.56 208.904Z" fill="#1E40AF"/>
<path d="M204.341 146.921C204.341 146.921 205.799 140.725 199.776 134.585C193.75 128.443 184.446 131.292 180.685 139.474C176.922 147.651 182.351 145.757 184.993 143.636C184.993 143.636 178.618 149.458 182.571 150.942C186.525 152.427 189.374 147.692 189.374 147.692C189.374 147.692 184.313 156.158 188.262 155.323C192.211 154.487 195.512 151.77 195.512 151.77C195.512 151.77 192.526 156.119 195.611 156.379C198.693 156.636 201.362 155.594 204.341 146.921Z" fill="#616161"/>
<path d="M125.45 76.7487C125.45 45.9124 143.266 20.9146 165.244 20.9146C187.221 20.9146 205.036 45.9124 205.036 76.7487C205.036 107.585 187.221 132.583 165.244 132.583C143.266 132.583 125.45 107.585 125.45 76.7487Z" fill="#1E40AF"/>
<path d="M214.663 71.6514C216 72.6581 216.835 74.6181 216.835 76.7459C216.835 78.8741 216 80.8341 214.663 81.8408C204.786 89.2769 187.585 102.227 187.585 102.227V51.2574C187.585 51.2574 204.786 64.2158 214.663 71.6514Z" fill="#1E40AF"/>
<path d="M165.245 59.1352C172.175 59.1352 177.803 67.0324 177.803 76.7563C177.803 86.485 172.175 94.3823 165.245 94.3823C158.311 94.3823 152.682 86.485 152.682 76.7563C152.682 67.0324 158.311 59.1352 165.245 59.1352ZM168.615 44.4121C166.378 43.9561 164.107 43.9561 161.87 44.4121L161.178 52.1536C159.245 52.7844 157.401 53.8554 155.718 55.3266L151.327 50.5423C149.515 52.4342 147.91 54.691 146.558 57.2333L149.971 63.3939C148.919 65.7561 148.156 68.3436 147.71 71.0559L142.192 72.0268C141.864 75.1646 141.864 78.3528 142.192 81.4906L147.71 82.4616C148.156 85.1691 148.919 87.7613 149.971 90.1182L146.558 96.2789C147.91 98.8264 149.515 101.078 151.327 102.975L155.718 98.1856C157.401 99.6568 159.245 100.733 161.178 101.359L161.87 109.101C164.107 109.561 166.378 109.561 168.615 109.101L169.307 101.359C171.24 100.733 173.084 99.6568 174.768 98.1856L179.159 102.975C180.97 101.078 182.576 98.8264 183.927 96.2789L180.514 90.1182C181.566 87.7613 182.329 85.1691 182.775 82.4616L188.293 81.4906C188.621 78.3528 188.621 75.1646 188.293 72.0268L182.775 71.0559C182.329 68.3436 181.566 65.7561 180.514 63.3939L183.927 57.2333C182.576 54.691 180.97 52.4342 179.159 50.5423L174.768 55.3266C173.084 53.8554 171.24 52.7844 169.307 52.1536L168.615 44.4121Z" fill="#0DDE65"/>
<path d="M165.078 84.738C164.201 84.738 163.357 84.5726 162.552 84.242C161.748 83.9114 161.1 83.4797 160.602 82.9475L161.466 80.2571C161.937 80.735 162.5 81.1204 163.141 81.4144C163.783 81.7174 164.437 81.8732 165.098 81.8732C165.602 81.8732 166.007 81.7998 166.315 81.6621C166.623 81.5244 166.851 81.332 166.995 81.0747C167.145 80.827 167.217 80.5421 167.217 80.2214C167.217 79.8074 167.1 79.4772 166.871 79.2385C166.642 78.9999 166.334 78.7978 165.962 78.6421C165.581 78.4853 165.17 78.3386 164.712 78.2009C164.253 78.0637 163.802 77.8893 163.344 77.6868C162.893 77.4758 162.474 77.2094 162.094 76.8878C161.721 76.5667 161.414 76.1441 161.178 75.612C160.942 75.0889 160.825 74.409 160.825 73.5829C160.825 72.7015 160.995 71.903 161.335 71.1779C161.675 70.4432 162.186 69.8643 162.873 69.4332C163.56 69.002 164.424 68.7814 165.458 68.7814C166.151 68.7814 166.832 68.9005 167.499 69.1211C168.166 69.3508 168.762 69.6904 169.272 70.1492L168.487 72.8577C167.977 72.4447 167.46 72.1417 166.95 71.9397C166.439 71.7467 165.935 71.6462 165.444 71.6462C164.947 71.6462 164.548 71.7286 164.234 71.8934C163.92 72.0502 163.691 72.2613 163.56 72.518C163.423 72.7748 163.351 73.0688 163.351 73.4085C163.351 73.8034 163.469 74.125 163.698 74.3723C163.926 74.6115 164.234 74.8039 164.607 74.9512C164.987 75.0979 165.405 75.2446 165.857 75.3919C166.315 75.5386 166.766 75.713 167.224 75.8969C167.682 76.0894 168.095 76.3466 168.474 76.6677C168.847 76.9888 169.155 77.4205 169.39 77.9441C169.626 78.4763 169.744 79.1466 169.744 79.9546C169.744 80.8174 169.574 81.6164 169.226 82.3325C168.88 83.0581 168.363 83.636 167.682 84.0772C166.995 84.5178 166.125 84.738 165.078 84.738ZM164.515 66.4036H166.085V87.1163H164.515V66.4036Z" fill="#0DDE65"/>
</svg>
