<svg width="285" height="220" viewBox="0 0 285 220" fill="none" xmlns="http://www.w3.org/2000/svg">
<rect y="0.372925" width="284.905" height="219.157" rx="10.6044" fill="#002A80"/>
<path d="M144.082 33.7051C142.969 32.6098 141.178 32.6244 140.083 33.7376L122.234 51.8796C121.138 52.9929 121.153 54.7833 122.266 55.8786C123.379 56.974 125.17 56.9594 126.265 55.8461L142.131 39.7199L158.257 55.586C159.371 56.6813 161.161 56.6668 162.256 55.5535C163.352 54.4402 163.337 52.6498 162.224 51.5545L144.082 33.7051ZM145.633 122.654L144.926 35.6979L139.271 35.7439L139.978 122.7L145.633 122.654Z" fill="white"/>
<path d="M122.936 150.644V149.208H119.467V148.487L121.948 143.233H122.797L120.316 148.487H122.936V146.326H123.697V148.487H124.505V149.208H123.697V150.644H122.936ZM125.687 150.644V149.764H126.567V150.644H125.687ZM130.344 150.798C129.96 150.798 129.605 150.719 129.279 150.562C128.953 150.404 128.675 150.186 128.445 149.908C128.215 149.63 128.05 149.311 127.951 148.951L128.676 148.755C128.742 149.023 128.86 149.254 129.032 149.45C129.203 149.642 129.404 149.791 129.634 149.898C129.867 150.004 130.111 150.057 130.365 150.057C130.694 150.057 130.989 149.978 131.25 149.82C131.514 149.659 131.723 149.446 131.878 149.182C132.032 148.918 132.109 148.628 132.109 148.312C132.109 147.987 132.029 147.693 131.867 147.432C131.706 147.168 131.493 146.959 131.229 146.805C130.965 146.65 130.677 146.573 130.365 146.573C130.015 146.573 129.713 146.65 129.459 146.805C129.205 146.955 129.002 147.146 128.851 147.376L128.162 147.088L128.388 143.233H132.346V143.958H128.723L129.098 143.603L128.898 146.892L128.707 146.64C128.92 146.396 129.177 146.206 129.479 146.069C129.781 145.931 130.099 145.863 130.431 145.863C130.888 145.863 131.3 145.972 131.667 146.192C132.034 146.408 132.325 146.702 132.542 147.072C132.758 147.443 132.866 147.856 132.866 148.312C132.866 148.765 132.751 149.181 132.521 149.558C132.291 149.932 131.986 150.232 131.605 150.459C131.224 150.685 130.804 150.798 130.344 150.798ZM136.158 150.644V143.233H136.853L139.766 149.465L142.663 143.233H143.369V150.639H142.648V144.921L140.008 150.644H139.519L136.884 144.921V150.644H136.158ZM144.916 144.03V143.181H145.672V144.03H144.916ZM144.916 150.644V145.086H145.672V150.644H144.916ZM147.318 150.644V143.078H148.075V150.644H147.318ZM149.721 150.644V143.078H150.477V150.644H149.721ZM152.123 144.03V143.181H152.88V144.03H152.123ZM152.123 150.644V145.086H152.88V150.644H152.123ZM156.744 150.798C156.191 150.798 155.72 150.673 155.329 150.423C154.937 150.172 154.637 149.826 154.428 149.383C154.219 148.94 154.114 148.433 154.114 147.86C154.114 147.276 154.22 146.765 154.433 146.326C154.646 145.887 154.948 145.545 155.339 145.302C155.733 145.055 156.202 144.931 156.744 144.931C157.3 144.931 157.773 145.056 158.164 145.307C158.559 145.554 158.859 145.899 159.065 146.341C159.274 146.78 159.379 147.287 159.379 147.86C159.379 148.443 159.274 148.956 159.065 149.398C158.856 149.838 158.554 150.181 158.159 150.428C157.765 150.675 157.293 150.798 156.744 150.798ZM156.744 150.073C157.361 150.073 157.821 149.868 158.123 149.46C158.425 149.048 158.576 148.515 158.576 147.86C158.576 147.187 158.423 146.652 158.118 146.254C157.816 145.856 157.358 145.657 156.744 145.657C156.329 145.657 155.986 145.751 155.715 145.94C155.447 146.125 155.246 146.384 155.112 146.717C154.982 147.046 154.917 147.427 154.917 147.86C154.917 148.529 155.071 149.066 155.38 149.47C155.689 149.872 156.143 150.073 156.744 150.073ZM164.529 150.644V147.808C164.529 147.499 164.499 147.216 164.441 146.959C164.383 146.698 164.288 146.472 164.158 146.28C164.031 146.084 163.865 145.933 163.659 145.827C163.456 145.72 163.209 145.667 162.918 145.667C162.65 145.667 162.413 145.713 162.208 145.806C162.005 145.899 161.834 146.033 161.693 146.207C161.556 146.379 161.451 146.588 161.379 146.835C161.307 147.082 161.271 147.364 161.271 147.679L160.736 147.561C160.736 146.992 160.835 146.513 161.034 146.125C161.233 145.737 161.508 145.444 161.858 145.245C162.208 145.046 162.609 144.947 163.062 144.947C163.395 144.947 163.685 144.998 163.932 145.101C164.182 145.204 164.393 145.343 164.565 145.518C164.74 145.693 164.88 145.894 164.987 146.12C165.093 146.343 165.17 146.581 165.218 146.835C165.266 147.086 165.29 147.336 165.29 147.587V150.644H164.529ZM160.509 150.644V145.086H161.194V146.455H161.271V150.644H160.509Z" fill="white"/>
<path d="M78.4058 176.547C77.2255 176.547 76.2291 176.286 75.4166 175.764C74.6041 175.237 73.9893 174.51 73.5721 173.582C73.1548 172.654 72.9462 171.584 72.9462 170.371C72.9462 169.157 73.1548 168.087 73.5721 167.159C73.9893 166.231 74.6041 165.507 75.4166 164.985C76.2291 164.458 77.2255 164.195 78.4058 164.195C79.7837 164.195 80.9091 164.549 81.782 165.257C82.6549 165.96 83.2533 166.904 83.5772 168.09L82.342 168.411C82.0894 167.472 81.6365 166.728 80.9833 166.179C80.33 165.63 79.4708 165.356 78.4058 165.356C77.478 165.356 76.7067 165.567 76.0919 165.99C75.477 166.412 75.0131 167.003 74.7002 167.76C74.3928 168.512 74.2336 169.382 74.2226 170.371C74.2171 171.359 74.3681 172.229 74.6755 172.981C74.9884 173.733 75.4551 174.323 76.0754 174.751C76.7012 175.174 77.478 175.386 78.4058 175.386C79.4708 175.386 80.33 175.111 80.9833 174.562C81.6365 174.008 82.0894 173.264 82.342 172.33L83.5772 172.652C83.2533 173.837 82.6549 174.784 81.782 175.493C80.9091 176.195 79.7837 176.547 78.4058 176.547ZM87.9386 176.547C87.2688 176.547 86.7061 176.426 86.2505 176.184C85.8003 175.943 85.4627 175.622 85.2376 175.221C85.0125 174.82 84.9 174.384 84.9 173.912C84.9 173.428 84.9961 173.017 85.1882 172.676C85.3858 172.33 85.6521 172.048 85.987 171.828C86.3273 171.609 86.7199 171.441 87.1645 171.326C87.6147 171.216 88.1115 171.12 88.655 171.038C89.204 170.95 89.7392 170.876 90.2608 170.815C90.7878 170.749 91.2489 170.686 91.6442 170.626L91.216 170.889C91.2324 170.011 91.0623 169.36 90.7054 168.938C90.3486 168.515 89.7283 168.304 88.8444 168.304C88.235 168.304 87.719 168.441 87.2963 168.715C86.8791 168.99 86.5854 169.424 86.4152 170.017L85.2376 169.671C85.4407 168.875 85.8497 168.257 86.4646 167.818C87.0794 167.379 87.8782 167.159 88.8609 167.159C89.6734 167.159 90.3623 167.313 90.9278 167.62C91.4987 167.922 91.9022 168.361 92.1383 168.938C92.2481 169.196 92.3194 169.484 92.3524 169.802C92.3853 170.121 92.4018 170.445 92.4018 170.774V176.3H91.323V174.068L91.6359 174.2C91.334 174.963 90.8646 175.545 90.2278 175.945C89.591 176.346 88.8279 176.547 87.9386 176.547ZM88.0786 175.501C88.644 175.501 89.1381 175.399 89.5608 175.196C89.9835 174.993 90.3239 174.716 90.5819 174.364C90.8399 174.008 91.0074 173.607 91.0842 173.162C91.1501 172.877 91.1858 172.564 91.1913 172.223C91.1968 171.878 91.1995 171.62 91.1995 171.449L91.6607 171.688C91.2489 171.743 90.8015 171.798 90.3184 171.853C89.8408 171.908 89.3687 171.971 88.902 172.042C88.4409 172.114 88.0237 172.199 87.6504 172.298C87.3978 172.369 87.1535 172.47 86.9175 172.602C86.6814 172.728 86.4865 172.899 86.3328 173.113C86.1846 173.327 86.1105 173.593 86.1105 173.912C86.1105 174.17 86.1736 174.419 86.2999 174.661C86.4316 174.902 86.6403 175.103 86.9257 175.262C87.2167 175.421 87.601 175.501 88.0786 175.501ZM98.5393 176.547C97.7213 176.547 97.0296 176.341 96.4642 175.929C95.8987 175.512 95.4705 174.949 95.1796 174.241C94.8886 173.527 94.7431 172.728 94.7431 171.845C94.7431 170.944 94.8886 170.143 95.1796 169.44C95.476 168.732 95.9097 168.175 96.4806 167.768C97.0516 167.362 97.7543 167.159 98.5887 167.159C99.4012 167.159 100.098 167.365 100.68 167.777C101.262 168.188 101.707 168.748 102.014 169.457C102.327 170.165 102.484 170.961 102.484 171.845C102.484 172.734 102.327 173.533 102.014 174.241C101.701 174.949 101.251 175.512 100.664 175.929C100.076 176.341 99.3683 176.547 98.5393 176.547ZM94.5372 180.252V167.406H95.6242V174.101H95.756V180.252H94.5372ZM98.4158 175.418C99.0361 175.418 99.5522 175.262 99.9639 174.949C100.376 174.636 100.683 174.211 100.886 173.673C101.095 173.129 101.199 172.52 101.199 171.845C101.199 171.175 101.098 170.571 100.894 170.033C100.691 169.495 100.381 169.07 99.9639 168.757C99.5522 168.444 99.0279 168.287 98.3911 168.287C97.7707 168.287 97.2547 168.438 96.843 168.74C96.4367 169.042 96.132 169.462 95.9289 170C95.7258 170.533 95.6242 171.147 95.6242 171.845C95.6242 172.531 95.7258 173.146 95.9289 173.689C96.132 174.227 96.4395 174.65 96.8512 174.957C97.2629 175.265 97.7845 175.418 98.4158 175.418ZM109.134 176.3C108.634 176.404 108.14 176.445 107.652 176.423C107.169 176.401 106.735 176.297 106.351 176.11C105.972 175.924 105.684 175.633 105.486 175.237C105.327 174.908 105.239 174.576 105.222 174.241C105.212 173.901 105.206 173.514 105.206 173.08V164.936H106.408V173.03C106.408 173.404 106.411 173.717 106.417 173.969C106.427 174.216 106.485 174.436 106.589 174.628C106.787 174.996 107.1 175.215 107.528 175.287C107.962 175.358 108.497 175.342 109.134 175.237V176.3ZM103.304 168.444V167.406H109.134V168.444H103.304ZM114.287 176.522C113.755 176.522 113.288 176.44 112.887 176.275C112.492 176.11 112.154 175.888 111.874 175.608C111.6 175.328 111.377 175.009 111.207 174.653C111.037 174.29 110.914 173.909 110.837 173.508C110.76 173.102 110.721 172.698 110.721 172.298V167.406H111.94V171.943C111.94 172.432 111.987 172.885 112.08 173.302C112.173 173.719 112.322 174.084 112.525 174.397C112.733 174.705 113 174.944 113.324 175.114C113.653 175.284 114.051 175.369 114.518 175.369C114.946 175.369 115.322 175.295 115.646 175.147C115.975 174.998 116.25 174.787 116.469 174.513C116.694 174.233 116.864 173.895 116.98 173.5C117.095 173.099 117.153 172.649 117.153 172.149L118.009 172.339C118.009 173.25 117.85 174.016 117.532 174.636C117.213 175.257 116.774 175.726 116.214 176.044C115.654 176.363 115.012 176.522 114.287 176.522ZM117.276 176.3V174.109H117.153V167.406H118.363V176.3H117.276ZM120.665 176.3V167.406H121.752V169.547L121.538 169.267C121.636 169.004 121.765 168.762 121.925 168.543C122.084 168.317 122.257 168.134 122.443 167.991C122.674 167.788 122.943 167.634 123.25 167.53C123.558 167.42 123.868 167.357 124.181 167.34C124.494 167.318 124.779 167.34 125.037 167.406V168.543C124.714 168.46 124.359 168.441 123.975 168.485C123.591 168.529 123.237 168.682 122.913 168.946C122.616 169.177 122.394 169.454 122.246 169.778C122.098 170.096 121.999 170.436 121.949 170.799C121.9 171.156 121.875 171.51 121.875 171.861V176.3H120.665ZM130.202 176.547C129.335 176.547 128.582 176.354 127.946 175.97C127.314 175.586 126.823 175.045 126.472 174.348C126.12 173.651 125.945 172.833 125.945 171.894C125.945 170.922 126.118 170.082 126.463 169.374C126.809 168.666 127.295 168.12 127.921 167.736C128.552 167.351 129.296 167.159 130.153 167.159C131.031 167.159 131.78 167.362 132.401 167.768C133.021 168.169 133.49 168.746 133.809 169.498C134.127 170.25 134.273 171.147 134.245 172.19H133.01V171.762C132.988 170.609 132.738 169.739 132.261 169.152C131.788 168.564 131.097 168.271 130.185 168.271C129.23 168.271 128.497 168.581 127.987 169.201C127.482 169.822 127.229 170.705 127.229 171.853C127.229 172.973 127.482 173.843 127.987 174.463C128.497 175.078 129.219 175.386 130.153 175.386C130.789 175.386 131.344 175.24 131.816 174.949C132.294 174.653 132.67 174.227 132.944 173.673L134.072 174.109C133.721 174.883 133.202 175.484 132.516 175.913C131.835 176.335 131.064 176.547 130.202 176.547ZM126.801 172.19V171.178H133.595V172.19H126.801ZM139.37 176.3V164.442H146.781V165.603H140.58V169.704H145.793V170.865H140.58V175.138H146.781V176.3H139.37ZM147.774 176.3L151.249 171.803L147.848 167.406H149.298L151.957 170.873L154.592 167.406H156.042L152.641 171.803L156.124 176.3H154.667L151.957 172.734L149.232 176.3H147.774ZM161.441 176.547C160.623 176.547 159.931 176.341 159.366 175.929C158.801 175.512 158.372 174.949 158.081 174.241C157.79 173.527 157.645 172.728 157.645 171.845C157.645 170.944 157.79 170.143 158.081 169.44C158.378 168.732 158.812 168.175 159.382 167.768C159.953 167.362 160.656 167.159 161.491 167.159C162.303 167.159 163 167.365 163.582 167.777C164.164 168.188 164.609 168.748 164.916 169.457C165.229 170.165 165.386 170.961 165.386 171.845C165.386 172.734 165.229 173.533 164.916 174.241C164.603 174.949 164.153 175.512 163.566 175.929C162.978 176.341 162.27 176.547 161.441 176.547ZM157.439 180.252V167.406H158.526V174.101H158.658V180.252H157.439ZM161.318 175.418C161.938 175.418 162.454 175.262 162.866 174.949C163.277 174.636 163.585 174.211 163.788 173.673C163.997 173.129 164.101 172.52 164.101 171.845C164.101 171.175 163.999 170.571 163.796 170.033C163.593 169.495 163.283 169.07 162.866 168.757C162.454 168.444 161.93 168.287 161.293 168.287C160.673 168.287 160.157 168.438 159.745 168.74C159.339 169.042 159.034 169.462 158.831 170C158.628 170.533 158.526 171.147 158.526 171.845C158.526 172.531 158.628 173.146 158.831 173.689C159.034 174.227 159.341 174.65 159.753 174.957C160.165 175.265 160.686 175.418 161.318 175.418ZM170.957 176.547C170.09 176.547 169.338 176.354 168.701 175.97C168.069 175.586 167.578 175.045 167.227 174.348C166.875 173.651 166.7 172.833 166.7 171.894C166.7 170.922 166.873 170.082 167.219 169.374C167.564 168.666 168.05 168.12 168.676 167.736C169.307 167.351 170.051 167.159 170.908 167.159C171.786 167.159 172.535 167.362 173.156 167.768C173.776 168.169 174.245 168.746 174.564 169.498C174.882 170.25 175.028 171.147 175 172.19H173.765V171.762C173.743 170.609 173.493 169.739 173.016 169.152C172.544 168.564 171.852 168.271 170.941 168.271C169.985 168.271 169.253 168.581 168.742 169.201C168.237 169.822 167.984 170.705 167.984 171.853C167.984 172.973 168.237 173.843 168.742 174.463C169.253 175.078 169.974 175.386 170.908 175.386C171.544 175.386 172.099 175.24 172.571 174.949C173.049 174.653 173.425 174.227 173.699 173.673L174.827 174.109C174.476 174.883 173.957 175.484 173.271 175.913C172.59 176.335 171.819 176.547 170.957 176.547ZM167.556 172.19V171.178H174.35V172.19H167.556ZM183.01 176.3V171.762C183.01 171.268 182.963 170.815 182.87 170.404C182.776 169.986 182.625 169.624 182.417 169.317C182.214 169.004 181.947 168.762 181.618 168.592C181.294 168.422 180.899 168.337 180.432 168.337C180.004 168.337 179.625 168.411 179.296 168.559C178.972 168.707 178.697 168.921 178.472 169.201C178.253 169.476 178.085 169.811 177.97 170.206C177.855 170.601 177.797 171.051 177.797 171.556L176.941 171.367C176.941 170.456 177.1 169.69 177.418 169.07C177.737 168.449 178.176 167.98 178.736 167.661C179.296 167.343 179.938 167.184 180.663 167.184C181.195 167.184 181.659 167.266 182.054 167.431C182.455 167.596 182.793 167.818 183.067 168.098C183.347 168.378 183.572 168.699 183.742 169.061C183.913 169.418 184.036 169.8 184.113 170.206C184.19 170.607 184.228 171.007 184.228 171.408V176.3H183.01ZM176.578 176.3V167.406H177.673V169.597H177.797V176.3H176.578ZM189.684 176.538C188.641 176.538 187.782 176.313 187.106 175.863C186.437 175.413 186.025 174.787 185.871 173.986L187.106 173.78C187.238 174.285 187.537 174.688 188.004 174.99C188.476 175.287 189.058 175.435 189.75 175.435C190.425 175.435 190.957 175.295 191.347 175.015C191.737 174.729 191.932 174.342 191.932 173.854C191.932 173.579 191.869 173.357 191.742 173.187C191.622 173.011 191.372 172.849 190.993 172.701C190.614 172.553 190.049 172.377 189.297 172.174C188.49 171.954 187.858 171.735 187.403 171.515C186.947 171.296 186.623 171.043 186.431 170.758C186.239 170.467 186.143 170.113 186.143 169.695C186.143 169.19 186.286 168.748 186.571 168.37C186.856 167.985 187.252 167.689 187.757 167.48C188.262 167.266 188.849 167.159 189.519 167.159C190.189 167.159 190.787 167.269 191.314 167.488C191.847 167.703 192.275 168.005 192.599 168.394C192.923 168.784 193.115 169.237 193.175 169.753L191.94 169.975C191.858 169.454 191.597 169.042 191.158 168.74C190.724 168.433 190.172 168.274 189.503 168.263C188.871 168.246 188.358 168.367 187.963 168.625C187.567 168.877 187.37 169.215 187.37 169.638C187.37 169.874 187.441 170.077 187.584 170.247C187.727 170.412 187.985 170.568 188.358 170.716C188.737 170.865 189.275 171.027 189.972 171.202C190.79 171.411 191.432 171.631 191.899 171.861C192.365 172.092 192.698 172.363 192.895 172.676C193.093 172.989 193.192 173.376 193.192 173.837C193.192 174.677 192.879 175.339 192.253 175.822C191.633 176.3 190.776 176.538 189.684 176.538ZM198.781 176.547C197.914 176.547 197.162 176.354 196.525 175.97C195.894 175.586 195.402 175.045 195.051 174.348C194.7 173.651 194.524 172.833 194.524 171.894C194.524 170.922 194.697 170.082 195.043 169.374C195.389 168.666 195.874 168.12 196.5 167.736C197.132 167.351 197.875 167.159 198.732 167.159C199.61 167.159 200.36 167.362 200.98 167.768C201.6 168.169 202.07 168.746 202.388 169.498C202.706 170.25 202.852 171.147 202.824 172.19H201.589V171.762C201.567 170.609 201.318 169.739 200.84 169.152C200.368 168.564 199.676 168.271 198.765 168.271C197.81 168.271 197.077 168.581 196.566 169.201C196.061 169.822 195.809 170.705 195.809 171.853C195.809 172.973 196.061 173.843 196.566 174.463C197.077 175.078 197.799 175.386 198.732 175.386C199.369 175.386 199.923 175.24 200.395 174.949C200.873 174.653 201.249 174.227 201.523 173.673L202.652 174.109C202.3 174.883 201.781 175.484 201.095 175.913C200.414 176.335 199.643 176.547 198.781 176.547ZM195.38 172.19V171.178H202.174V172.19H195.38ZM207.97 176.538C206.927 176.538 206.068 176.313 205.393 175.863C204.723 175.413 204.312 174.787 204.158 173.986L205.393 173.78C205.525 174.285 205.824 174.688 206.291 174.99C206.763 175.287 207.345 175.435 208.036 175.435C208.712 175.435 209.244 175.295 209.634 175.015C210.024 174.729 210.219 174.342 210.219 173.854C210.219 173.579 210.155 173.357 210.029 173.187C209.908 173.011 209.659 172.849 209.28 172.701C208.901 172.553 208.336 172.377 207.583 172.174C206.776 171.954 206.145 171.735 205.689 171.515C205.234 171.296 204.91 171.043 204.718 170.758C204.526 170.467 204.43 170.113 204.43 169.695C204.43 169.19 204.572 168.748 204.858 168.37C205.143 167.985 205.538 167.689 206.044 167.48C206.549 167.266 207.136 167.159 207.806 167.159C208.476 167.159 209.074 167.269 209.601 167.488C210.133 167.703 210.562 168.005 210.886 168.394C211.209 168.784 211.402 169.237 211.462 169.753L210.227 169.975C210.144 169.454 209.884 169.042 209.444 168.74C209.011 168.433 208.459 168.274 207.789 168.263C207.158 168.246 206.645 168.367 206.249 168.625C205.854 168.877 205.657 169.215 205.657 169.638C205.657 169.874 205.728 170.077 205.871 170.247C206.013 170.412 206.271 170.568 206.645 170.716C207.023 170.865 207.561 171.027 208.259 171.202C209.077 171.411 209.719 171.631 210.186 171.861C210.652 172.092 210.984 172.363 211.182 172.676C211.38 172.989 211.478 173.376 211.478 173.837C211.478 174.677 211.166 175.339 210.54 175.822C209.919 176.3 209.063 176.538 207.97 176.538Z" fill="white"/>
</svg>
