<svg width="1000" height="600" viewBox="0 0 1000 600" fill="none" xmlns="http://www.w3.org/2000/svg">
<path d="M771.521 300.003H731.681C731.283 300.003 730.902 299.845 730.62 299.564C730.339 299.282 730.181 298.901 730.181 298.503C730.181 298.105 730.339 297.724 730.62 297.442C730.902 297.161 731.283 297.003 731.681 297.003H771.521C771.919 297.003 772.301 297.161 772.582 297.442C772.863 297.724 773.021 298.105 773.021 298.503C773.021 298.901 772.863 299.282 772.582 299.564C772.301 299.845 771.919 300.003 771.521 300.003ZM771.521 310.083H731.681C731.283 310.083 730.902 309.925 730.62 309.644C730.339 309.362 730.181 308.981 730.181 308.583C730.181 308.185 730.339 307.804 730.62 307.522C730.902 307.241 731.283 307.083 731.681 307.083H771.521C771.919 307.083 772.301 307.241 772.582 307.522C772.863 307.804 773.021 308.185 773.021 308.583C773.021 308.981 772.863 309.362 772.582 309.644C772.301 309.925 771.919 310.083 771.521 310.083ZM771.521 320.163H731.681C731.283 320.163 730.902 320.005 730.62 319.724C730.339 319.442 730.181 319.061 730.181 318.663C730.181 318.265 730.339 317.884 730.62 317.602C730.902 317.321 731.283 317.163 731.681 317.163H771.521C771.919 317.163 772.301 317.321 772.582 317.602C772.863 317.884 773.021 318.265 773.021 318.663C773.021 319.061 772.863 319.442 772.582 319.724C772.301 320.005 771.919 320.163 771.521 320.163Z" fill="#A9C0FF"/>
<path d="M399.457 476.399C500.192 476.399 581.854 394.737 581.854 294.002C581.854 193.267 500.192 111.605 399.457 111.605C298.722 111.605 217.06 193.267 217.06 294.002C217.06 394.737 298.722 476.399 399.457 476.399Z" fill="#0DDE65" fill-opacity="0.4"/>
<path d="M541.429 415.788H495.106V462.111H541.429V415.788Z" fill="#A9C0FF"/>
<path d="M655.811 447.329C684.162 447.329 707.145 424.346 707.145 395.995C707.145 367.644 684.162 344.661 655.811 344.661C627.46 344.661 604.477 367.644 604.477 395.995C604.477 424.346 627.46 447.329 655.811 447.329Z" fill="#D9EBFF"/>
<path d="M677.908 263.95C722.247 263.95 758.19 228.007 758.19 183.668C758.19 139.329 722.247 103.386 677.908 103.386C633.569 103.386 597.626 139.329 597.626 183.668C597.626 228.007 633.569 263.95 677.908 263.95Z" fill="#D9EBFF"/>
<path d="M333.003 127.112H293.164C292.766 127.112 292.384 126.954 292.103 126.673C291.822 126.392 291.664 126.01 291.664 125.612C291.664 125.214 291.822 124.833 292.103 124.552C292.384 124.27 292.766 124.112 293.164 124.112H333.003C333.401 124.112 333.783 124.27 334.064 124.552C334.345 124.833 334.503 125.214 334.503 125.612C334.503 126.01 334.345 126.392 334.064 126.673C333.783 126.954 333.401 127.112 333.003 127.112ZM333.003 137.192H293.164C292.766 137.192 292.384 137.034 292.103 136.753C291.822 136.472 291.664 136.09 291.664 135.692C291.664 135.295 291.822 134.913 292.103 134.632C292.384 134.35 292.766 134.192 293.164 134.192H333.003C333.401 134.192 333.783 134.35 334.064 134.632C334.345 134.913 334.503 135.295 334.503 135.692C334.503 136.09 334.345 136.472 334.064 136.753C333.783 137.034 333.401 137.192 333.003 137.192ZM333.003 147.272H293.164C292.766 147.272 292.384 147.114 292.103 146.833C291.822 146.552 291.664 146.17 291.664 145.772C291.664 145.375 291.822 144.993 292.103 144.712C292.384 144.431 292.766 144.272 293.164 144.272H333.003C333.401 144.272 333.783 144.431 334.064 144.712C334.345 144.993 334.503 145.375 334.503 145.772C334.503 146.17 334.345 146.552 334.064 146.833C333.783 147.114 333.401 147.272 333.003 147.272ZM771.521 142.154H731.681C731.283 142.154 730.902 141.996 730.62 141.715C730.339 141.434 730.181 141.052 730.181 140.654C730.181 140.256 730.339 139.875 730.62 139.594C730.902 139.312 731.283 139.154 731.681 139.154H771.521C771.919 139.154 772.301 139.312 772.582 139.594C772.863 139.875 773.021 140.256 773.021 140.654C773.021 141.052 772.863 141.434 772.582 141.715C772.301 141.996 771.919 142.154 771.521 142.154ZM771.521 152.234H731.681C731.283 152.234 730.902 152.076 730.62 151.795C730.339 151.514 730.181 151.132 730.181 150.734C730.181 150.337 730.339 149.955 730.62 149.674C730.902 149.392 731.283 149.234 731.681 149.234H771.521C771.919 149.234 772.301 149.392 772.582 149.674C772.863 149.955 773.021 150.337 773.021 150.734C773.021 151.132 772.863 151.514 772.582 151.795C772.301 152.076 771.919 152.234 771.521 152.234ZM771.521 162.314H731.681C731.283 162.314 730.902 162.156 730.62 161.875C730.339 161.594 730.181 161.212 730.181 160.814C730.181 160.417 730.339 160.035 730.62 159.754C730.902 159.472 731.283 159.314 731.681 159.314H771.521C771.919 159.314 772.301 159.472 772.582 159.754C772.863 160.035 773.021 160.417 773.021 160.814C773.021 161.212 772.863 161.594 772.582 161.875C772.301 162.156 771.919 162.314 771.521 162.314Z" fill="#A9C0FF"/>
<path d="M804.066 476.511H166.146V485.511H804.066V476.511Z" fill="#0DDE65"/>
<path d="M495.106 459.111V418.788C495.106 417.993 494.789 417.23 494.227 416.667C493.664 416.104 492.901 415.788 492.106 415.788H483.706C482.91 415.788 482.147 416.104 481.584 416.667C481.022 417.23 480.706 417.993 480.706 418.788V473.511C480.706 474.307 481.022 475.07 481.584 475.632C482.147 476.195 482.91 476.511 483.706 476.511H538.429C539.224 476.511 539.987 476.195 540.55 475.632C541.112 475.07 541.429 474.307 541.429 473.511V465.111C541.429 464.315 541.112 463.552 540.55 462.99C539.987 462.427 539.224 462.111 538.429 462.111H498.106C497.712 462.111 497.321 462.033 496.958 461.883C496.594 461.732 496.263 461.511 495.984 461.232C495.706 460.954 495.485 460.623 495.334 460.259C495.183 459.895 495.106 459.505 495.106 459.111Z" fill="#6299E8"/>
<path d="M525.467 462.111V476.511H568.79C569.586 476.511 570.349 476.195 570.911 475.632C571.474 475.07 571.79 474.307 571.79 473.511V465.111C571.79 464.315 571.474 463.552 570.911 462.99C570.349 462.427 569.586 462.111 568.79 462.111H525.467Z" fill="#C2D5FF"/>
<path d="M627.198 222.925H372.798C369.484 222.925 366.798 225.611 366.798 228.925V409.788C366.798 413.102 369.484 415.788 372.798 415.788H627.198C630.512 415.788 633.198 413.102 633.198 409.788V228.925C633.198 225.611 630.512 222.925 627.198 222.925Z" fill="#6299E8"/>
<path d="M627.198 417.288H372.797C370.809 417.286 368.903 416.495 367.497 415.089C366.091 413.683 365.3 411.777 365.297 409.788V228.925C365.3 226.936 366.091 225.03 367.497 223.624C368.903 222.218 370.809 221.427 372.797 221.425H627.198C629.186 221.427 631.093 222.218 632.499 223.624C633.905 225.03 634.696 226.936 634.698 228.925V409.788C634.696 411.777 633.905 413.683 632.499 415.089C631.093 416.495 629.186 417.286 627.198 417.288ZM372.797 224.425C371.604 224.426 370.46 224.901 369.617 225.744C368.773 226.588 368.299 227.732 368.297 228.925V409.788C368.299 410.981 368.773 412.125 369.617 412.969C370.46 413.812 371.604 414.287 372.797 414.288H627.198C628.391 414.287 629.535 413.812 630.378 412.969C631.222 412.125 631.696 410.981 631.698 409.788V228.925C631.696 227.732 631.222 226.588 630.378 225.744C629.535 224.901 628.391 224.426 627.198 224.425H372.797Z" fill="#002A80"/>
<path d="M643.906 222.925H389.506C386.192 222.925 383.506 225.611 383.506 228.925V409.788C383.506 413.102 386.192 415.788 389.506 415.788H643.906C647.22 415.788 649.906 413.102 649.906 409.788V228.925C649.906 225.611 647.22 222.925 643.906 222.925Z" fill="white"/>
<path d="M623.756 242.718H409.656C406.342 242.718 403.656 245.404 403.656 248.718V389.994C403.656 393.308 406.342 395.994 409.656 395.994H623.756C627.07 395.994 629.756 393.308 629.756 389.994V248.718C629.756 245.404 627.07 242.718 623.756 242.718Z" fill="#D9EBFF"/>
<path d="M643.906 417.288H389.506C387.517 417.286 385.611 416.495 384.205 415.089C382.799 413.683 382.008 411.777 382.006 409.788V228.925C382.008 226.936 382.799 225.03 384.205 223.624C385.611 222.218 387.517 221.427 389.506 221.425H643.906C645.894 221.427 647.801 222.218 649.207 223.624C650.613 225.03 651.404 226.936 651.406 228.925V409.788C651.404 411.777 650.613 413.683 649.207 415.089C647.801 416.495 645.894 417.286 643.906 417.288ZM389.506 224.425C388.313 224.426 387.169 224.901 386.325 225.744C385.482 226.588 385.007 227.732 385.006 228.925V409.788C385.007 410.981 385.482 412.125 386.325 412.969C387.169 413.812 388.313 414.287 389.506 414.288H643.906C645.099 414.287 646.243 413.812 647.086 412.969C647.93 412.125 648.404 410.981 648.406 409.788V228.925C648.404 227.732 647.93 226.588 647.086 225.744C646.243 224.901 645.099 224.426 643.906 224.425H389.506Z" fill="#002A80"/>
<path d="M623.755 242.719H409.656C408.065 242.719 406.538 243.351 405.413 244.476C404.288 245.601 403.656 247.127 403.656 248.719V265.24H629.755V248.719C629.755 247.127 629.123 245.601 627.998 244.476C626.873 243.351 625.347 242.719 623.755 242.719ZM403.656 376.848V389.995C403.656 391.586 404.288 393.112 405.413 394.238C406.538 395.363 408.065 395.995 409.656 395.995H623.755C625.347 395.995 626.873 395.363 627.998 394.238C629.123 393.112 629.755 391.586 629.755 389.995V376.848H403.656Z" fill="#A9C0FF"/>
<path d="M613.426 278.323H534.226V280.323H613.426V278.323Z" fill="#0DDE65"/>
<path d="M613.426 295.406H534.226V297.406H613.426V295.406Z" fill="#0DDE65"/>
<path d="M613.426 312.488H534.226V314.488H613.426V312.488Z" fill="#0DDE65"/>
<path d="M613.426 329.572H420.306V331.572H613.426V329.572Z" fill="#0DDE65"/>
<path d="M613.426 346.655H420.306V348.655H613.426V346.655Z" fill="#0DDE65"/>
<path d="M613.426 363.738H420.306V365.738H613.426V363.738Z" fill="#0DDE65"/>
<path opacity="0.28" d="M698.574 185.392H553.158C549.844 185.392 547.158 188.078 547.158 191.392V293.355C547.158 296.669 549.844 299.355 553.158 299.355H698.574C701.888 299.355 704.574 296.669 704.574 293.355V191.392C704.574 188.078 701.888 185.392 698.574 185.392Z" fill="#6299E8"/>
<path d="M713.694 170.588H568.278C564.964 170.588 562.278 173.274 562.278 176.588V278.551C562.278 281.865 564.964 284.551 568.278 284.551H713.694C717.008 284.551 719.694 281.865 719.694 278.551V176.588C719.694 173.274 717.008 170.588 713.694 170.588Z" fill="white"/>
<path d="M713.693 286.051H568.278C566.289 286.049 564.383 285.258 562.977 283.852C561.571 282.446 560.78 280.539 560.778 278.551V176.588C560.78 174.599 561.571 172.693 562.977 171.287C564.383 169.881 566.289 169.09 568.278 169.088H713.693C715.682 169.09 717.588 169.881 718.994 171.287C720.4 172.693 721.191 174.599 721.193 176.588V278.551C721.191 280.539 720.4 282.446 718.994 283.852C717.588 285.258 715.682 286.049 713.693 286.051ZM568.278 172.088C567.085 172.089 565.941 172.564 565.097 173.407C564.254 174.251 563.779 175.395 563.778 176.588V278.551C563.779 279.744 564.254 280.888 565.097 281.731C565.941 282.575 567.085 283.049 568.278 283.051H713.693C714.886 283.049 716.03 282.575 716.874 281.731C717.718 280.888 718.192 279.744 718.193 278.551V176.588C718.192 175.395 717.718 174.251 716.874 173.407C716.03 172.564 714.886 172.089 713.693 172.088H568.278Z" fill="#002A80"/>
<path d="M587.766 195.243H584.766V259.894H587.766V195.243Z" fill="#002A80"/>
<path d="M615.125 195.243H612.125V259.894H615.125V195.243Z" fill="#002A80"/>
<path d="M642.486 195.243H639.486V259.894H642.486V195.243Z" fill="#002A80"/>
<path d="M669.846 195.243H666.846V259.894H669.846V195.243Z" fill="#002A80"/>
<path d="M697.206 195.243H694.206V259.894H697.206V195.243Z" fill="#002A80"/>
<path d="M706.396 212.391H575.836V215.391H706.396V212.391Z" fill="#002A80"/>
<path d="M706.396 239.751H575.836V242.751H706.396V239.751Z" fill="#002A80"/>
<path d="M647.635 218.705L645.636 220.942L661.477 235.102L663.476 232.865L647.635 218.705Z" fill="#002A80"/>
<path d="M661.477 218.706L645.636 232.866L647.635 235.103L663.476 220.943L661.477 218.706Z" fill="#002A80"/>
<path opacity="0.28" d="M507.234 136.236H422.1C418.786 136.236 416.1 138.922 416.1 142.236V200.557C416.1 203.871 418.786 206.557 422.1 206.557H507.234C510.548 206.557 513.234 203.871 513.234 200.557V142.236C513.234 138.922 510.548 136.236 507.234 136.236Z" fill="#6299E8"/>
<path d="M516.563 127.101H431.429C428.115 127.101 425.429 129.787 425.429 133.101V191.422C425.429 194.736 428.115 197.422 431.429 197.422H516.563C519.877 197.422 522.563 194.736 522.563 191.422V133.101C522.563 129.787 519.877 127.101 516.563 127.101Z" fill="white"/>
<path d="M516.563 198.923H431.429C429.441 198.921 427.534 198.13 426.128 196.724C424.722 195.318 423.931 193.411 423.929 191.423V133.102C423.931 131.113 424.722 129.207 426.128 127.801C427.534 126.395 429.441 125.604 431.429 125.602H516.563C518.551 125.604 520.458 126.395 521.864 127.801C523.27 129.207 524.061 131.113 524.063 133.102V191.423C524.061 193.411 523.27 195.318 521.864 196.724C520.458 198.13 518.551 198.921 516.563 198.923ZM431.429 128.602C430.236 128.603 429.092 129.077 428.249 129.921C427.405 130.765 426.931 131.908 426.929 133.102V191.423C426.93 192.616 427.405 193.76 428.249 194.603C429.092 195.447 430.236 195.922 431.429 195.923H516.563C517.756 195.922 518.9 195.447 519.744 194.603C520.587 193.76 521.062 192.616 521.063 191.423V133.102C521.062 131.908 520.587 130.765 519.744 129.921C518.9 129.077 517.756 128.603 516.563 128.602H431.429Z" fill="#002A80"/>
<path d="M513.227 146.487C512.264 146.491 511.302 146.405 510.355 146.229C511.202 143.582 511.08 140.719 510.009 138.154C509.991 138.118 509.972 138.083 509.951 138.048C509.553 137.283 508.926 136.662 508.157 136.272C507.388 135.882 506.516 135.743 505.664 135.874C504.773 135.962 503.93 136.324 503.252 136.909C502.574 137.495 502.094 138.277 501.878 139.147C501.868 139.179 501.86 139.212 501.852 139.246C501.185 142.326 502.359 144.922 505.256 146.762C505.906 147.168 506.589 147.518 507.297 147.809C506.847 148.896 506.331 149.955 505.752 150.98C505.295 151.803 504.78 152.654 504.208 153.533C504.036 153.799 503.977 154.123 504.043 154.432C504.11 154.742 504.296 155.012 504.561 155.185C504.826 155.358 505.149 155.419 505.459 155.355C505.769 155.29 506.04 155.106 506.215 154.842C506.515 154.382 506.802 153.926 507.074 153.477C508.046 151.9 508.886 150.246 509.585 148.53C510.783 148.776 512.004 148.898 513.227 148.892C513.384 148.893 513.54 148.862 513.686 148.802C513.832 148.742 513.964 148.654 514.076 148.543C514.187 148.432 514.275 148.3 514.336 148.154C514.396 148.009 514.427 147.853 514.427 147.695C514.427 147.538 514.396 147.382 514.336 147.237C514.275 147.091 514.187 146.959 514.076 146.848C513.964 146.737 513.832 146.649 513.686 146.589C513.54 146.529 513.384 146.498 513.227 146.499L513.227 146.487ZM508.058 145.53C507.529 145.304 507.019 145.037 506.531 144.732C504.496 143.44 503.748 141.871 504.179 139.799C504.268 139.383 504.489 139.006 504.809 138.726C505.13 138.445 505.532 138.276 505.957 138.243C506.336 138.174 506.728 138.231 507.071 138.406C507.415 138.581 507.691 138.864 507.859 139.211C508.655 141.229 508.727 143.46 508.063 145.525L508.058 145.535L508.058 145.53Z" fill="#A9C0FF"/>
<path d="M507.074 153.473C506.802 153.921 506.515 154.377 506.215 154.837C506.041 155.101 505.769 155.286 505.459 155.35C505.149 155.415 504.826 155.354 504.561 155.181C504.296 155.008 504.11 154.736 504.045 154.427C503.979 154.117 504.039 153.794 504.211 153.528C504.782 152.654 505.297 151.802 505.756 150.975C506.268 151.767 506.709 152.603 507.074 153.473ZM508.06 145.53C508.721 143.464 508.648 141.234 507.856 139.215C507.688 138.868 507.412 138.585 507.068 138.411C506.724 138.236 506.333 138.179 505.954 138.249C505.528 138.279 505.125 138.448 504.804 138.728C504.483 139.009 504.263 139.387 504.176 139.804C503.745 141.879 504.495 143.444 506.528 144.737C507.016 145.042 507.526 145.309 508.055 145.535C507.926 145.497 503.786 144.249 503.786 140.935C503.786 139.115 504.503 138.062 505.845 137.893C507.187 137.724 508.263 138.432 508.652 140.304C508.99 142.065 508.784 143.888 508.06 145.53Z" fill="#92B1EF"/>
<path d="M508.564 148.207L508.503 148.19H508.483L508.564 148.207ZM507.667 161.041C507.667 167.759 504.541 173.592 498.374 178.387L498.353 178.403L498.073 178.619L498.048 178.638C497.947 178.716 497.845 178.798 497.743 178.867L497.692 178.904C497.532 179.009 497.373 179.123 497.213 179.241V187.603C497.214 187.612 497.214 187.62 497.213 187.629C497.207 187.941 497.078 188.239 496.855 188.458C496.631 188.677 496.331 188.8 496.018 188.8H489.096C488.828 188.8 488.567 188.71 488.356 188.544C488.145 188.379 487.996 188.147 487.932 187.887L487.87 187.629L487.241 185.056L487.062 184.326C486.812 184.402 486.56 184.475 486.306 184.546C482.406 185.607 478.38 186.13 474.338 186.1C469.972 186.136 465.626 185.513 461.447 184.252L460.574 187.881C460.512 188.142 460.363 188.375 460.152 188.541C459.941 188.707 459.68 188.798 459.411 188.798H452.495C452.338 188.798 452.182 188.767 452.037 188.707C451.892 188.647 451.76 188.559 451.649 188.448C451.537 188.337 451.449 188.205 451.389 188.059C451.329 187.914 451.298 187.758 451.298 187.601V179.394C449.266 178.47 447.356 177.298 445.611 175.906C443.768 174.527 442.04 173.001 440.443 171.344C438.567 170.744 436.871 169.687 435.507 168.267C434.815 167.497 434.288 166.594 433.959 165.613C433.63 164.631 433.505 163.593 433.592 162.562C433.591 162.524 433.594 162.487 433.604 162.45C433.776 160.934 434.316 159.482 435.176 158.22C435.715 157.489 436.464 156.939 437.323 156.642C438.182 156.346 439.111 156.317 439.987 156.559C440.344 156.618 440.711 156.555 441.029 156.382C441.347 156.209 441.598 155.934 441.742 155.602C441.795 155.392 441.851 155.198 441.913 155.019C442.666 152.524 443.911 150.205 445.575 148.2L444.232 140.146C444.193 139.925 444.218 139.698 444.302 139.49C444.386 139.283 444.527 139.103 444.708 138.971C444.89 138.84 445.104 138.762 445.328 138.746C445.552 138.731 445.775 138.779 445.973 138.884L452.165 142.168C458.399 137.992 465.856 135.875 474.346 135.875C483.442 135.875 491.322 138.313 497.751 143.116C501.569 145.737 504.549 149.405 506.333 153.678C507.236 156.027 507.689 158.525 507.667 161.041Z" fill="#A9C0FF"/>
<path d="M508.483 148.182L508.564 148.205L508.503 148.189L508.483 148.182Z" fill="black"/>
<path d="M452.665 154.1C452.931 154.349 453.143 154.651 453.288 154.985C453.433 155.319 453.508 155.68 453.508 156.045C453.48 156.775 453.178 157.468 452.661 157.985C452.144 158.502 451.451 158.804 450.72 158.831C450.356 158.829 449.997 158.753 449.664 158.606C449.33 158.46 449.031 158.247 448.783 157.981C448.532 157.727 448.336 157.424 448.206 157.091C448.077 156.758 448.017 156.402 448.03 156.045C448.013 155.686 448.071 155.329 448.2 154.994C448.329 154.66 448.527 154.356 448.78 154.102C449.033 153.848 449.336 153.65 449.67 153.52C450.005 153.389 450.362 153.33 450.72 153.346C451.079 153.332 451.436 153.392 451.771 153.522C452.105 153.652 452.409 153.848 452.665 154.1Z" fill="#002A80"/>
<path d="M437.812 163.339C437.812 165.836 436.816 167.91 435.507 168.328C434.815 167.558 434.288 166.655 433.959 165.674C433.63 164.692 433.505 163.654 433.592 162.623C433.591 162.585 433.594 162.547 433.604 162.511C433.772 160.993 434.311 159.541 435.173 158.281C436.644 158.427 437.812 160.636 437.812 163.339Z" fill="#92B1EF"/>
<path d="M435.966 163.282C435.966 162.211 435.744 161.342 435.469 161.342C435.195 161.342 434.973 162.211 434.973 163.282C434.973 164.353 435.195 165.22 435.469 165.22C435.744 165.22 435.966 164.353 435.966 163.282ZM434.489 162.959C434.489 161.975 434.285 161.177 434.033 161.177C433.781 161.177 433.577 161.975 433.577 162.959C433.577 163.944 433.781 164.742 434.033 164.742C434.285 164.742 434.489 163.944 434.489 162.959Z" fill="#002A80"/>
<path d="M497.213 179.3V180.294C495.38 181.279 491.55 183.261 487.241 185.118L487.064 184.394C489.059 183.503 494.55 180.896 497.213 179.3ZM451.298 179.456C451.298 179.456 458.25 183.513 461.45 184.315L461.257 185.113C457.788 183.716 454.455 182.004 451.298 179.998V179.456ZM503.29 145.117C503.29 145.117 506.301 148.886 513.227 148.881C513.541 148.871 513.84 148.742 514.062 148.519C514.285 148.297 514.414 147.998 514.424 147.684C514.34 147.961 514.17 148.203 513.938 148.376C513.705 148.548 513.424 148.641 513.135 148.642C509.551 148.605 506.083 147.363 503.29 145.117Z" fill="#92B1EF"/>
<path d="M682.402 236.981C680.802 236.981 679.238 236.507 677.907 235.618C676.577 234.729 675.54 233.465 674.927 231.987C674.315 230.508 674.155 228.882 674.467 227.312C674.779 225.743 675.55 224.301 676.681 223.17C677.813 222.038 679.254 221.267 680.824 220.955C682.393 220.643 684.02 220.803 685.499 221.416C686.977 222.028 688.241 223.065 689.13 224.396C690.019 225.726 690.493 227.29 690.493 228.891C690.491 231.036 689.637 233.092 688.121 234.609C686.604 236.126 684.547 236.979 682.402 236.981ZM682.402 223.8C681.395 223.8 680.411 224.098 679.574 224.658C678.737 225.217 678.084 226.012 677.699 226.942C677.314 227.873 677.213 228.896 677.409 229.884C677.606 230.871 678.091 231.778 678.803 232.49C679.515 233.202 680.422 233.687 681.409 233.884C682.397 234.08 683.42 233.979 684.351 233.594C685.281 233.209 686.076 232.556 686.635 231.719C687.195 230.882 687.493 229.897 687.493 228.891C687.492 227.541 686.955 226.247 686 225.293C685.046 224.338 683.752 223.801 682.402 223.8ZM797.536 226.171C794.311 226.171 791.159 225.215 788.478 223.423C785.797 221.631 783.707 219.085 782.473 216.106C781.239 213.127 780.917 209.849 781.546 206.686C782.175 203.524 783.728 200.619 786.008 198.339C788.288 196.058 791.193 194.506 794.356 193.877C797.518 193.248 800.796 193.571 803.775 194.805C806.754 196.039 809.301 198.128 811.092 200.809C812.884 203.491 813.84 206.643 813.84 209.867C813.835 214.19 812.116 218.334 809.059 221.39C806.002 224.447 801.858 226.166 797.536 226.171ZM797.536 196.563C794.904 196.564 792.332 197.344 790.145 198.806C787.957 200.268 786.252 202.345 785.245 204.776C784.238 207.207 783.975 209.882 784.488 212.463C785.001 215.044 786.269 217.414 788.129 219.275C789.99 221.135 792.36 222.402 794.941 222.915C797.522 223.429 800.196 223.165 802.627 222.158C805.058 221.151 807.136 219.446 808.598 217.258C810.06 215.071 810.84 212.498 810.84 209.867C810.836 206.34 809.433 202.958 806.939 200.464C804.445 197.97 801.063 196.567 797.536 196.563Z" fill="#002A80"/>
<path d="M797.536 218.184C795.891 218.184 794.283 217.696 792.916 216.782C791.548 215.868 790.482 214.57 789.853 213.05C789.223 211.531 789.059 209.859 789.379 208.245C789.7 206.632 790.492 205.151 791.655 203.988C792.818 202.825 794.3 202.033 795.913 201.712C797.526 201.391 799.198 201.555 800.718 202.185C802.237 202.814 803.536 203.88 804.45 205.247C805.364 206.615 805.851 208.222 805.852 209.867C805.849 212.072 804.972 214.186 803.413 215.745C801.854 217.304 799.74 218.181 797.536 218.184ZM797.536 204.552C796.484 204.552 795.456 204.864 794.582 205.448C793.708 206.032 793.027 206.862 792.624 207.833C792.222 208.805 792.117 209.874 792.322 210.905C792.527 211.936 793.033 212.883 793.777 213.627C794.52 214.37 795.468 214.876 796.499 215.082C797.53 215.287 798.599 215.181 799.57 214.779C800.542 214.376 801.372 213.695 801.956 212.821C802.54 211.946 802.852 210.919 802.852 209.867C802.85 208.458 802.289 207.107 801.293 206.11C800.296 205.114 798.945 204.553 797.536 204.552ZM764.302 240.157H760.268C758.41 240.155 756.629 239.416 755.315 238.103C754.001 236.789 753.262 235.008 753.26 233.15C753.262 232.617 753.156 232.088 752.95 231.597C752.743 231.105 752.439 230.659 752.057 230.287C751.679 229.909 751.228 229.613 750.731 229.416C750.235 229.22 749.703 229.127 749.169 229.144L689.024 230.391L688.962 227.391L749.107 226.144C750.039 226.124 750.966 226.291 751.833 226.635C752.7 226.978 753.49 227.491 754.156 228.144C754.822 228.796 755.351 229.575 755.713 230.435C756.074 231.295 756.26 232.218 756.26 233.15C756.262 234.213 756.684 235.231 757.435 235.982C758.187 236.733 759.205 237.156 760.268 237.157H764.302C765.365 237.156 766.383 236.733 767.134 235.982C767.886 235.231 768.308 234.213 768.31 233.15V215.375C768.312 213.517 769.05 211.736 770.364 210.422C771.678 209.108 773.459 208.369 775.317 208.367H783.692V211.367H775.317C774.254 211.368 773.236 211.791 772.484 212.543C771.733 213.294 771.311 214.312 771.31 215.375V233.15C771.307 235.008 770.568 236.789 769.255 238.103C767.941 239.416 766.16 240.155 764.302 240.157Z" fill="#002A80"/>
<path opacity="0.28" d="M818.374 249.538H770.079C768.422 249.538 767.079 250.881 767.079 252.538V326.425C767.079 328.082 768.422 329.425 770.079 329.425H818.374C820.031 329.425 821.374 328.082 821.374 326.425V252.538C821.374 250.881 820.031 249.538 818.374 249.538Z" fill="#6299E8"/>
<path d="M830.854 240.816H780.981C779.324 240.816 777.981 242.159 777.981 243.816V317.703C777.981 319.36 779.324 320.703 780.981 320.703H830.854C832.511 320.703 833.854 319.36 833.854 317.703V243.816C833.854 242.159 832.511 240.816 830.854 240.816Z" fill="#A9C0FF"/>
<path d="M810.227 261.526H787.489V263.526H810.227V261.526Z" fill="#002A80"/>
<path d="M814.644 254.166H787.489V256.166H814.644V254.166Z" fill="#002A80"/>
<path d="M825.195 268.888H787.489V270.888H825.195V268.888Z" fill="#0DDE65"/>
<path d="M823.195 283.992H789.489C788.384 283.992 787.489 284.887 787.489 285.992V305.388C787.489 306.493 788.384 307.388 789.489 307.388H823.195C824.3 307.388 825.195 306.493 825.195 305.388V285.992C825.195 284.887 824.3 283.992 823.195 283.992Z" fill="#FAFAFA"/>
<path d="M791.411 286.694L790.488 288.467L821.268 304.487L822.191 302.713L791.411 286.694Z" fill="#002A80"/>
<path d="M821.266 286.691L790.489 302.715L791.412 304.488L822.19 288.464L821.266 286.691Z" fill="#002A80"/>
<path d="M507.276 279.323H422.306C421.201 279.323 420.306 280.218 420.306 281.323V311.488C420.306 312.593 421.201 313.488 422.306 313.488H507.276C508.381 313.488 509.276 312.593 509.276 311.488V281.323C509.276 280.218 508.381 279.323 507.276 279.323Z" fill="#A9C0FF"/>
<path d="M764.841 335.137H658.521C656.864 335.137 655.521 336.48 655.521 338.137V473.083C655.521 474.74 656.864 476.083 658.521 476.083H764.841C766.498 476.083 767.841 474.74 767.841 473.083V338.137C767.841 336.48 766.498 335.137 764.841 335.137Z" fill="#D9EBFF"/>
<path d="M764.841 477.583H658.521C657.328 477.582 656.185 477.107 655.341 476.264C654.497 475.42 654.023 474.276 654.021 473.083V338.138C654.023 336.945 654.497 335.801 655.341 334.957C656.185 334.114 657.328 333.639 658.521 333.638H764.841C766.034 333.639 767.178 334.114 768.022 334.957C768.865 335.801 769.34 336.945 769.341 338.138V473.083C769.34 474.276 768.865 475.42 768.022 476.264C767.178 477.107 766.034 477.582 764.841 477.583ZM658.521 336.638C658.124 336.638 657.743 336.796 657.461 337.078C657.18 337.359 657.022 337.74 657.021 338.138V473.083C657.022 473.481 657.18 473.862 657.461 474.143C657.743 474.424 658.124 474.583 658.521 474.583H764.841C765.239 474.583 765.62 474.424 765.901 474.143C766.183 473.862 766.341 473.481 766.341 473.083V338.138C766.341 337.74 766.183 337.359 765.901 337.078C765.62 336.796 765.239 336.638 764.841 336.638H658.521Z" fill="#002A80"/>
<path d="M767.841 356.219H655.521V359.219H767.841V356.219Z" fill="#002A80"/>
<path d="M767.841 378.802H655.521V381.802H767.841V378.802Z" fill="#002A80"/>
<path d="M767.841 402.385H655.521V405.385H767.841V402.385Z" fill="#002A80"/>
<path d="M767.841 425.967H655.521V428.967H767.841V425.967Z" fill="#002A80"/>
<path d="M767.841 449.55H655.521V452.55H767.841V449.55Z" fill="#002A80"/>
<path d="M759.561 345.602H752.361V348.602H759.561V345.602Z" fill="#002A80"/>
<path d="M746.121 345.602H738.921V348.602H746.121V345.602Z" fill="#002A80"/>
<path d="M732.681 345.602H725.481V348.602H732.681V345.602Z" fill="#002A80"/>
<path d="M719.242 345.602H712.042V348.602H719.242V345.602Z" fill="#002A80"/>
<path d="M676.461 356.719H673.461V476.016H676.461V356.719Z" fill="#002A80"/>
<path d="M700.941 356.719H697.941V476.016H700.941V356.719Z" fill="#002A80"/>
<path d="M725.421 356.719H722.421V476.016H725.421V356.719Z" fill="#002A80"/>
<path d="M749.901 356.719H746.901V476.016H749.901V356.719Z" fill="#002A80"/>
<path d="M196.525 475.492H242.684C240.107 475.492 237.605 474.625 235.581 473.03C233.556 471.436 232.127 469.207 231.523 466.701L216.595 404.766C215.992 402.26 214.562 400.031 212.538 398.437C210.514 396.842 208.012 395.975 205.435 395.975H201.689C199.955 395.975 198.244 396.368 196.684 397.124C195.123 397.879 193.755 398.979 192.68 400.339C191.605 401.7 190.853 403.286 190.479 404.979C190.105 406.671 190.119 408.427 190.52 410.113L202.957 462.373C203.358 464.059 203.372 465.815 202.998 467.508C202.624 469.201 201.871 470.787 200.797 472.147C199.722 473.507 198.353 474.607 196.793 475.363C195.233 476.118 193.522 476.511 191.788 476.511L196.525 475.492Z" fill="#6299E8"/>
<path d="M199.889 395.873H246.048H246.156L261.205 461.443C261.591 463.125 261.593 464.873 261.21 466.556C260.828 468.239 260.071 469.814 258.996 471.164C257.92 472.514 256.555 473.604 255 474.353C253.445 475.103 251.741 475.492 250.016 475.492H242.684C240.107 475.492 237.605 474.625 235.581 473.03C233.556 471.436 232.127 469.207 231.523 466.701L216.595 404.766C215.992 402.26 214.562 400.031 212.538 398.437C210.514 396.842 208.012 395.975 205.435 395.975L199.889 395.873ZM176.146 453.981L180.805 468.373C181.522 470.728 182.976 472.79 184.953 474.255C186.931 475.72 189.327 476.511 191.788 476.511C193.522 476.511 195.233 476.118 196.793 475.363C198.353 474.607 199.722 473.507 200.797 472.147C201.871 470.787 202.624 469.201 202.998 467.508C203.372 465.815 203.358 464.059 202.957 462.373L200.96 453.981H176.146Z" fill="#002A80"/>
<path d="M250.016 475.492C251.741 475.492 253.445 475.103 255 474.353C256.555 473.604 257.92 472.514 258.996 471.164C260.071 469.814 260.828 468.239 261.21 466.556C261.593 464.873 261.591 463.125 261.205 461.443L236.255 352.731C235.869 351.049 235.867 349.302 236.249 347.619C236.632 345.936 237.389 344.361 238.464 343.011C239.539 341.661 240.905 340.57 242.46 339.821C244.015 339.072 245.718 338.683 247.444 338.683H251.917L314.258 352.731L339.208 461.443C339.594 463.125 339.596 464.873 339.214 466.556C338.831 468.239 338.074 469.814 336.999 471.164C335.924 472.514 334.558 473.604 333.003 474.353C331.448 475.103 329.745 475.492 328.019 475.492H250.016Z" fill="#6299E8"/>
<path d="M325.447 338.683H329.92C332.41 338.683 334.833 339.492 336.823 340.99C338.812 342.487 340.261 344.591 340.951 346.983L346.157 365.043C346.846 367.436 348.295 369.539 350.285 371.037C352.275 372.534 354.698 373.344 357.188 373.344H279.185C276.694 373.344 274.272 372.534 272.282 371.037C270.292 369.539 268.843 367.436 268.153 365.043L262.948 346.983C262.258 344.591 260.809 342.487 258.819 340.99C256.83 339.492 254.407 338.683 251.917 338.683H325.447Z" fill="#002A80"/>
<path d="M279.185 373.344H280.44C282.176 373.344 283.89 372.95 285.452 372.192C287.014 371.434 288.384 370.332 289.458 368.968C290.533 367.604 291.284 366.014 291.655 364.318C292.026 362.622 292.008 360.864 291.602 359.176L289.711 351.324H367.715L369.605 359.176C370.011 360.864 370.03 362.622 369.658 364.318C369.287 366.014 368.536 367.604 367.461 368.968C366.387 370.332 365.017 371.434 363.455 372.192C361.893 372.95 360.18 373.344 358.444 373.344H279.185Z" fill="#92B1EF"/>
<path d="M303.665 390.807H254.705V393.807H303.665V390.807Z" fill="#002A80"/>
<path d="M316.323 390.807H309.843V393.807H316.323V390.807Z" fill="#002A80"/>
<path d="M307.024 403.887H258.064V406.887H307.024V403.887Z" fill="#002A80"/>
<path d="M319.683 403.887H313.203V406.887H319.683V403.887Z" fill="#002A80"/>
<path d="M310.461 417.086H261.501V420.086H310.461V417.086Z" fill="#002A80"/>
<path d="M323.12 417.086H316.64V420.086H323.12V417.086Z" fill="#002A80"/>
<path d="M313.897 430.286H264.937V433.286H313.897V430.286Z" fill="#002A80"/>
<path d="M326.556 430.286H320.076V433.286H326.556V430.286Z" fill="#002A80"/>
<path d="M317.333 443.486H268.373V446.486H317.333V443.486Z" fill="#002A80"/>
<path d="M329.992 443.486H323.512V446.486H329.992V443.486Z" fill="#002A80"/>
<path d="M320.77 456.687H271.81V459.687H320.77V456.687Z" fill="#002A80"/>
<path d="M333.428 456.687H326.948V459.687H333.428V456.687Z" fill="#002A80"/>
<path d="M230.317 415.111H203.322V418.111H230.317V415.111Z" fill="#002A80"/>
<path d="M232.17 428.191H205.175V431.191H232.17V428.191Z" fill="#002A80"/>
<path d="M234.065 441.391H207.07V444.391H234.065V441.391Z" fill="#002A80"/>
<path d="M235.959 454.591H208.964V457.591H235.959V454.591Z" fill="#002A80"/>
<path opacity="0.28" d="M388.89 192.371H266.075C264.97 192.371 264.075 193.266 264.075 194.371V288.396C264.075 289.501 264.97 290.396 266.075 290.396H388.89C389.995 290.396 390.89 289.501 390.89 288.396V194.371C390.89 193.266 389.995 192.371 388.89 192.371Z" fill="#6299E8"/>
<path d="M372.199 177.363H249.384C248.279 177.363 247.384 178.258 247.384 179.363V273.388C247.384 274.493 248.279 275.388 249.384 275.388H372.199C373.304 275.388 374.199 274.493 374.199 273.388V179.363C374.199 178.258 373.304 177.363 372.199 177.363Z" fill="white"/>
<path d="M372.199 276.888H249.384C248.456 276.887 247.567 276.517 246.911 275.861C246.255 275.205 245.885 274.316 245.884 273.388V179.363C245.885 178.435 246.255 177.546 246.911 176.89C247.567 176.234 248.456 175.864 249.384 175.863H372.199C373.127 175.864 374.016 176.234 374.672 176.89C375.328 177.546 375.698 178.435 375.699 179.363V273.388C375.698 274.316 375.328 275.205 374.672 275.861C374.016 276.517 373.127 276.887 372.199 276.888ZM249.384 178.863C249.252 178.863 249.125 178.916 249.031 179.01C248.937 179.104 248.884 179.231 248.884 179.363V273.388C248.884 273.52 248.937 273.647 249.031 273.741C249.125 273.835 249.252 273.888 249.384 273.888H372.199C372.331 273.888 372.458 273.835 372.552 273.741C372.646 273.647 372.699 273.52 372.699 273.388V179.363C372.699 179.231 372.646 179.104 372.552 179.01C372.458 178.916 372.331 178.863 372.199 178.863H249.384Z" fill="#002A80"/>
<path d="M345.566 192.371H285.952C284.847 192.371 283.952 193.266 283.952 194.371V233.188C283.952 234.293 284.847 235.188 285.952 235.188H345.566C346.671 235.188 347.566 234.293 347.566 233.188V194.371C347.566 193.266 346.671 192.371 345.566 192.371Z" fill="#A9C0FF"/>
<path d="M347.566 198.862H283.952V207.833H347.566V198.862Z" fill="#D9EBFF"/>
<path d="M337.473 213.508C337.506 213.022 337.347 212.542 337.029 212.173C336.711 211.804 336.26 211.576 335.774 211.537H283.952V233.217C283.918 233.703 284.078 234.183 284.396 234.552C284.714 234.921 285.165 235.15 285.651 235.188H343.484L337.473 213.508Z" fill="#002A80"/>
<path d="M330.886 217.399H271.272C270.167 217.399 269.272 218.294 269.272 219.399V258.216C269.272 259.321 270.167 260.216 271.272 260.216H330.886C331.991 260.216 332.886 259.321 332.886 258.216V219.399C332.886 218.294 331.991 217.399 330.886 217.399Z" fill="#92B1EF"/>
<path d="M327.483 247.575H274.267V254.303H327.483V247.575Z" fill="#002A80"/>
<path opacity="0.61" d="M279.67 235.698C282.372 235.698 284.563 233.507 284.563 230.805C284.563 228.103 282.372 225.912 279.67 225.912C276.968 225.912 274.777 228.103 274.777 230.805C274.777 233.507 276.968 235.698 279.67 235.698Z" fill="#A9C0FF"/>
<path opacity="0.61" d="M285.787 235.698C288.489 235.698 290.68 233.507 290.68 230.805C290.68 228.103 288.489 225.912 285.787 225.912C283.085 225.912 280.894 228.103 280.894 230.805C280.894 233.507 283.085 235.698 285.787 235.698Z" fill="#A9C0FF"/>
</svg>
